<svg width="35" height="21" viewBox="0 0 35 21" fill="none" xmlns="http://www.w3.org/2000/svg">
<path d="M29.0427 11.9992C28.4769 11.2847 28.6388 10.9667 29.0427 10.328C29.05 10.3207 33.721 3.86612 34.2023 1.67716L34.2052 1.67571C34.4444 0.877998 34.2052 0.291748 33.0488 0.291748H29.2221C28.2479 0.291748 27.7987 0.794873 27.5581 1.35779C27.5581 1.35779 25.6098 6.02154 22.8535 9.04466C21.964 9.91821 21.5527 10.1982 21.0671 10.1982C20.8279 10.1982 20.456 9.91821 20.456 9.1205V1.67571C20.456 0.71904 20.1833 0.291748 19.3769 0.291748H13.3598C12.7488 0.291748 12.3856 0.737998 12.3856 1.15362C12.3856 2.06071 13.7638 2.26925 13.9067 4.82133V10.3586C13.9067 11.572 13.6865 11.7951 13.1979 11.7951C11.8971 11.7951 8.73979 7.11237 6.86875 1.753C6.49104 0.713206 6.12208 0.293206 5.14063 0.293206H1.3125C0.220208 0.293206 0 0.796331 0 1.35925C0 2.35383 1.30083 7.29904 6.04917 13.8324C9.21375 18.292 13.6704 20.7084 17.7246 20.7084C20.1615 20.7084 20.459 20.1717 20.459 19.2486C20.459 14.9874 20.2388 14.5849 21.4594 14.5849C22.0252 14.5849 22.9994 14.8649 25.2744 17.0159C27.8746 19.5665 28.3019 20.7084 29.7573 20.7084H33.584C34.6748 20.7084 35.2275 20.1717 34.9096 19.113C34.1819 16.8861 29.2644 12.3055 29.0427 11.9992Z" fill="white"/>
</svg>
