<svg width="110" height="61" viewBox="0 0 110 61" fill="none" xmlns="http://www.w3.org/2000/svg">
<path fill-rule="evenodd" clip-rule="evenodd" d="M78.9294 55.8732C77.5339 54.8219 35.6728 51.9825 32.3451 54.7263L78.9294 55.8732ZM101.611 47.9483C103.325 48.1037 105.11 47.4545 107.44 46.885L108.438 46.5386C106.315 45.2085 105.062 45.8018 103.019 44.2248C101.071 42.7195 101.242 41.6363 98.6494 40.8398C95.7311 39.9478 87.219 39.2349 86.392 38.9044C91.2504 39.3066 95.3614 40.346 99.7546 41.9828C98.8243 42.5642 100.033 42.4447 98.1087 42.2974C97.9258 42.2854 96.4746 41.8792 96.3235 41.8354C93.5445 40.9832 91.5128 40.2464 88.6463 40.9155C86.7379 41.3615 85.8871 42.3571 85.8831 42.3491C85.8592 42.2854 86.1137 42.3531 86.0541 42.4168C90.3121 40.7482 96.1247 39.7885 101.611 47.9483V47.9483ZM101.432 56.7374C105.102 56.5702 106.804 55.9569 109.535 54.9454L109.479 53.0099C109.567 51.9108 110.35 46.5107 109.809 45.1686C105.766 40.4575 92.8209 37.9287 84.8534 36.8694C79.5377 36.1605 75.4864 36.4154 70.8467 34.4441C66.855 32.7477 63.2648 30.6888 59.0942 29.3388C49.8545 26.344 39.5651 26.563 29.8006 28.598L9.52403 33.4087C6.15653 34.2132 5.66751 32.7954 2.29206 33.0065C1.56449 37.6022 6.07304 37.192 8.3949 38.4265C7.19421 41.1066 5.914 40.5531 3.35359 40.3978C-2.09722 40.0633 0.475123 47.8806 1.58437 50.2979C2.90433 53.1692 5.44884 53.675 10.0926 54.5312C8.66526 35.9335 31.5261 35.4119 31.1285 56.4228C46.8885 55.3078 64.3144 57.1237 80.2454 57.0202C82.6309 35.599 101.969 38.1557 101.428 56.7414L101.432 56.7374ZM80.5198 42.8788L72.6994 42.4407C74.0034 41.3496 78.1701 41.935 80.3448 41.9549L80.5198 42.8748C81.7682 42.4567 81.1718 43.2611 81.6529 41.9828C80.1818 41.2381 77.9275 41.2659 76.0669 41.1743C73.2282 41.035 72.0672 40.3779 71.8923 43.4403C73.9637 43.9142 79.0368 44.7983 80.5198 42.8748V42.8788ZM68.2147 36.9331C67.0378 37.0805 64.5132 37.2039 63.404 36.8296C62.6287 36.5667 62.3226 36.2043 62.1556 35.7543C62.1317 35.9455 62.0999 36.2203 62.0721 36.6344C56.8797 37.5703 56.0647 33.9304 60.4022 33.5441C58.4621 31.9392 44.3719 27.6901 39.2828 31.5171L40.8652 35.4397C38.929 35.5473 35.5337 35.0933 33.4782 34.8424C30.4128 34.472 28.8225 34.6393 28.258 31.9552C34.3767 28.2317 57.0904 27.9529 61.8693 34.5198C61.8097 34.2729 61.7262 34.014 61.599 33.7432C63.7141 34.2649 66.7118 35.6866 68.2187 36.9331H68.2147ZM35.4979 32.0627C30.3612 33.2534 33.502 34.3685 36.456 34.3127L35.4979 32.0627V32.0627ZM88.0976 58.4459L87.541 57.8804C86.8095 57.3786 87.3621 57.6812 86.4795 57.279C86.563 57.3905 86.6584 57.4383 86.718 57.6175L88.1016 58.4459H88.0976ZM88.0976 58.4459C91.0278 60.2538 94.5503 58.8122 95.9737 57.0082C94.5702 58.0994 94.5304 58.2308 92.4312 58.6768C92.4789 57.2272 92.5624 56.8649 92.2285 55.4193C91.8309 53.6989 91.4929 53.5953 91.1192 53.1334C89.4852 54.34 89.1154 56.1202 89.1035 58.3304L88.0976 58.4459V58.4459ZM84.3286 54.4675L85.3981 56.1361L86.0938 54.6387C87.7994 54.5511 89.7595 53.9737 90.0577 52.1458C87.6165 51.7674 86.1296 52.1816 84.2411 52.8586L84.6387 49.2267C83.7521 51.0148 83.6169 52.1577 84.3246 54.4715L84.3286 54.4675ZM95.6158 55.1724C96.5899 55.8095 96.3076 55.9449 96.6098 56.2595L95.9776 57.0122C96.6893 56.5901 96.3076 56.9286 96.896 56.4148C97.2777 56.0803 97.4169 55.8294 97.6475 55.5666C98.224 52.7551 98.8362 50.7081 97.0312 48.47C97.6713 50.3656 98.3234 51.2617 97.7469 53.0856C96.1009 53.3126 97.5282 53.1214 95.5801 52.5878C94.3038 52.2373 93.2264 52.2413 91.9263 52.2135C92.7334 53.9219 93.6399 54.802 95.6158 55.1763V55.1724ZM88.3521 45.7501C86.392 46.0607 86.4914 46.7616 85.3026 47.9045L86.3721 48.5178C86.6981 48.8643 88.3123 51.2019 90.2843 51.2935C90.495 50.8634 90.7773 50.8356 90.5189 49.4895C90.5149 49.4656 90.002 48.1355 89.998 48.1275C89.4534 46.9766 89.0359 46.7496 88.3521 45.7541V45.7501ZM93.3298 46.6421C92.3159 47.6019 91.485 49.5413 91.7474 51.3772C94.6974 51.421 94.9638 48.924 97.0312 48.47C96.3434 46.5227 96.0055 46.5386 94.0454 45.6386C93.0077 44.9735 92.5624 44.7983 91.1113 44.7784C90.833 44.7744 89.8231 44.8301 89.5726 44.9058C87.5569 45.5151 88.861 44.8779 88.356 45.7541C89.6323 45.7182 93.7552 44.7545 93.3337 46.6461L93.3298 46.6421ZM82.444 54.2763C81.1837 49.1271 84.5671 44.5992 88.5747 43.5558C94.109 42.1182 98.7289 45.758 99.6871 49.84C102.474 61.7154 85.1555 65.3513 82.444 54.2763ZM17.3524 57.5299C19.5629 58.864 20.7715 58.2109 23.1014 57.7569C19.1335 56.4825 23.5506 57.2113 20.3938 52.1497C17.2808 53.5077 19.4834 56.837 17.3524 57.5339V57.5299ZM25.7572 55.6781C23.7295 56.3471 25.0058 55.7976 24.4372 56.7494L25.7572 55.6781ZM26.7949 48.8245L26.9658 52.5838C25.288 51.863 22.7753 50.728 21.0499 51.64C23.1849 54.5352 23.984 53.4798 26.2661 55.1724C27.105 53.3604 27.8604 50.8196 26.7949 48.8245V48.8245ZM13.8775 47.8607C12.3747 50.5329 13.1778 52.4683 14.1439 55.1365L14.132 53.9657C15.5831 53.8741 17.1416 53.5356 18.3105 52.6197C19.3681 51.7873 18.7081 52.4205 19.2568 51.5444C17.5353 50.4931 15.2412 50.9869 13.6231 51.8232L13.8775 47.8647V47.8607ZM26.7949 48.8245C26.0633 46.2439 24.6519 44.7624 21.7059 44.3164C24.306 45.8536 20.2229 46.3235 20.9346 50.5528C23.0497 50.2581 24.6519 48.7488 26.0116 47.2395L26.7949 48.8245V48.8245ZM21.3242 43.9899C17.6585 43.8664 16.4141 44.8501 14.5256 46.5266L15.1895 47.1957C15.5275 47.5421 15.5076 47.5342 15.8694 47.8926C16.3107 48.3346 16.6248 48.6453 17.0343 49.0076C17.8454 49.7245 18.6922 50.4732 19.4039 50.2223C19.9605 49.39 20.207 51.4847 19.714 48.6731C19.4317 47.0603 18.0362 45.7222 17.5273 44.635L21.3282 43.9899H21.3242ZM28.9378 52.9064C28.1427 57.1755 23.6977 60.903 18.1793 59.768C14.0207 58.9118 10.5895 54.5989 11.4722 49.4099C13.2891 38.7252 31.1722 40.9314 28.9378 52.9024V52.9064ZM25.9957 41.5089L25.8566 42.1062C28.8265 42.9624 29.2201 45.543 31.3631 47.4944C35.5178 45.3718 35.0128 44.7943 36.3805 41.3137L54.5976 41.3735C50.4548 40.8239 43.4892 40.804 39.1198 40.6606C24.5963 40.1867 31.3313 43.1456 25.9918 41.5089H25.9957ZM71.1488 53.4559C71.4868 50.3059 71.1846 46.8333 71.3396 44.1133L70.3537 52.4803C57.0069 52.1776 40.2688 54.2922 38.4956 43.8107C39.8554 56.1321 60.8038 52.1617 71.1488 53.4599V53.4559ZM11.2933 43.4005C6.63761 43.4323 3.72334 41.5686 0.868719 41.5965C0.479092 45.1686 1.61219 43.4323 4.80873 44.8222C7.4089 45.9532 6.4905 46.8412 9.01513 47.8926L11.2933 43.4005ZM85.8791 42.3452C84.2252 43.0022 84.2451 43.0301 83.4539 44.3284C83.9986 43.9341 84.4757 43.7231 84.8096 43.4801C85.6843 42.835 85.3861 43.0819 85.8831 42.3452H85.8791ZM108.756 45.4514C107.905 43.6354 104.828 42.596 102.152 42.146C103.162 43.8505 106.104 45.0412 108.756 45.4514V45.4514ZM45.986 39.2509C45.0835 39.0677 38.6427 37.8371 41.3105 39.7327C41.6127 40.0951 44.7257 40.0752 45.986 39.2509ZM43.3461 36.0092C45.0438 36.9132 68.7156 37.7575 69.8766 37.6221C68.9303 34.8703 55.2099 29.952 50.9677 29.2711C45.0756 28.3233 31.7447 29.3666 26.6239 31.2742C26.9062 32.5645 27.2441 33.7313 29.236 34.5477C29.8403 34.7946 32.52 35.2884 33.3669 35.4238C35.7165 35.7981 41.0441 36.1605 43.3421 36.0092H43.3461Z" fill="white"/>
<path d="M54.1201 2.95151C50.185 -0.983625 43.8155 -0.984048 39.88 2.95151C35.9449 6.8865 35.9443 13.2561 39.88 17.1916L46.4679 23.7795C46.7618 24.0735 47.2383 24.0734 47.5322 23.7795L54.1201 17.1916C58.0551 13.2566 58.0557 6.88711 54.1201 2.95151V2.95151ZM50.183 13.2545C48.424 15.0135 45.5765 15.0139 43.8171 13.2545C42.058 11.4954 42.0577 8.64799 43.8171 6.88867C45.576 5.12962 48.4236 5.12929 50.1829 6.88867C51.942 8.64766 51.9423 11.4951 50.183 13.2545Z" fill="white"/>
</svg>
