<svg width="120" height="45" viewBox="0 0 120 45" fill="none" xmlns="http://www.w3.org/2000/svg">
<g clip-path="url(#clip0)">
<path fill-rule="evenodd" clip-rule="evenodd" d="M102.981 23.5664C105.067 24.0241 104.157 23.9809 104.706 24.7236C102.465 23.7996 104.835 25.0344 103.856 24.3436C103.29 23.9377 103.204 23.7909 102.981 23.5664C97.9235 22.7719 94.017 21.5716 90.0761 25.3453C85.3024 29.9135 87.2685 31.0966 85.3109 37.2538L31.0313 37.2624C29.8379 30.5526 31.0485 32.2538 28.198 26.2952C31.3834 28.3678 31.452 32.8237 32.0445 36.2175L84.4009 36.3211C86.3327 30.2676 85.1306 28.7305 89.7412 24.5163C92.4801 22.012 98.2412 21.4593 101.573 22.7287L102.981 23.575V23.5664ZM115.533 31.8565L118.255 31.7184L118.633 29.0586C116.443 29.0759 116.065 29.9567 115.533 31.8652V31.8565ZM117.602 21.8393C115.344 19.4472 109.841 18.8427 105.659 18.9895C107.016 21.3384 112.228 23.2901 115.516 23.9636L117.611 21.8393H117.602ZM57.8964 17.6251C60.8413 17.6165 60.309 17.1674 60.6954 16.7529C59.6222 16.2002 56.4282 16.3039 55.1747 16.8738C55.6984 17.4265 55.2005 17.3401 56.4454 17.5819C56.4969 17.5906 57.7762 17.6251 57.8964 17.6251V17.6251ZM33.2722 16.3902C31.9414 15.7857 29.2283 15.7426 27.8975 16.3902C28.7904 17.1761 26.7985 16.632 29.3228 17.0897C30.6793 17.3315 32.3278 17.1588 33.2722 16.3902V16.3902ZM52.2984 30.2331C53.1656 27.9533 53.1399 24.7149 52.8565 22.1156C52.5904 19.7149 51.1394 16.5716 51.0793 15.7339L52.2984 30.2331V30.2331ZM12.5289 16.0275C7.30869 14.9481 10.5971 16.4161 2.25163 14.0241C2.12284 16.1916 2.36324 16.8825 3.05011 18.385C6.03797 19.0413 10.5799 17.9274 12.5203 16.0275H12.5289ZM74.3211 13.1864C71.5908 12.6942 73.3938 13.0137 72.7499 13.5146C74.0292 14.7926 74.2524 14.335 76.2701 13.7477C75.7635 13.6441 74.6903 13.2555 74.3211 13.1864ZM107.308 16.7356C104.148 15.5094 91.6129 12.7892 88.0756 13.7046C88.6079 14.4559 89.6124 16.0707 90.0332 16.917L107.308 16.7443V16.7356ZM77.7297 12.0034C78.2019 12.7201 77.91 12.5042 78.7771 13.1346C79.1807 13.4282 79.361 13.3764 79.8504 13.4109L77.7297 12.012V12.0034ZM14.04 6.4334C12.4258 7.74601 10.2279 8.38504 8.18444 9.39541C5.58294 10.6821 4.51829 11.183 2.77537 12.9274C5.09354 12.5647 14.5122 9.93945 16.0319 8.58366L14.04 6.4334V6.4334ZM72.1231 10.1294C67.5039 7.90145 57.6474 4.23996 51.3712 4.50767L53.2858 12.4956L71.2645 13.5923L72.1231 10.1381V10.1294ZM77.7382 12.0034L75.2655 9.93081C74.4842 9.46449 73.5655 8.92908 72.5266 8.37641C66.1645 4.98262 58.4115 3.29869 51.0707 2.65965C44.7086 2.10698 23.2354 3.6182 19.0198 6.32977C20.2733 7.41786 20.3162 7.14152 21.6556 8.63547C21.2091 10.1294 20.1016 10.7253 19.4576 11.9774L72.2862 15.2158C70.5605 13.7132 70.7322 14.4818 70.7322 14.4818L47.456 12.5301L46.9151 5.898C46.8808 5.75983 46.8464 5.61302 46.8121 5.49212C45.9707 2.37468 36.1828 4.55085 31.0571 4.9049L31.4606 11.4507C34.8778 11.727 41.2656 11.3989 43.7727 12.7115L22.995 11.5457C23.742 6.81337 23.3985 9.38677 20.7112 6.7961C22.1879 5.81164 24.6263 5.43167 26.8329 5.11216L24.5319 11.1225L30.3273 11.0793L30.1041 5.44031L26.6612 5.57848C27.8718 4.68038 28.7475 4.56812 30.2586 4.34359C42.8111 2.43513 55.5095 2.71147 67.5383 7.15015C70.7666 8.34186 75.7635 11.4766 77.7125 12.012L77.7382 12.0034ZM68.8347 3.40231C67.4954 3.98953 68.5514 3.21233 67.3666 4.39541C67.4438 4.48176 67.5555 4.60266 67.607 4.65447C69.3842 6.18297 81.018 12.2192 83.92 12.3401C83.8771 11.3298 83.6625 11.2175 83.216 10.6476C82.3918 10.4489 70.114 4.80128 68.8262 3.41095L68.8347 3.40231ZM83.2246 10.6389C93.5791 11.7097 106.535 12.6251 114.709 17.1242C119.543 19.784 120.573 23.0828 119.749 30.2762C119.319 34.05 119.311 35.1208 116.134 36.2175C114.013 36.9515 110.364 37.651 108.029 37.366C108.484 32.2365 107.694 31.4939 106.947 27.4524C106.853 27.3747 106.698 27.1502 106.664 27.2192C106.63 27.297 106.441 27.0206 106.398 26.9515C105.865 26.1398 106.217 26.8306 105.771 25.7598C106.647 26.373 106.398 25.2935 106.956 27.4524C108.948 29.5163 108.682 34.335 108.948 36.8479C112.502 37.0811 117.482 35.898 117.997 32.7201C108.209 32.7806 111.575 33.5491 109.283 28.385C108.45 26.5198 107.686 25.7771 106.449 24.5163C104.123 22.1329 100.585 20.9412 96.4382 20.9671C90.1276 21.0103 86.6418 24.9394 85.0877 29.8617C84.5382 31.5975 84.3493 33.9809 83.6024 35.3194C77.6781 35.2331 35.7793 34.5077 33.8131 33.5923C33.3323 33.0223 33.7702 33.7477 33.2379 32.651C33.1005 32.3747 32.9288 31.917 32.8086 31.6061C31.9672 29.4559 31.1 27.4351 29.5803 25.7426C24.8152 20.4403 16.9506 19.8099 12.1339 22.9792C8.89707 25.1122 9.02584 26.6061 7.00817 29.8358L2.47486 29.6113C1.83092 27.7201 2.07133 27.0983 0.792042 26.0707C0.105175 33.7218 3.17032 33.5318 7.44606 34.5422C8.24454 25.2417 12.7092 21.373 21.2864 22.5388C22.5571 22.7115 23.4672 22.9533 24.6864 23.48C25.1758 23.6873 25.8541 24.0154 26.2404 24.2918L27.6142 25.6735C18.4445 20.9066 8.691 22.4438 8.45918 35.9757C2.30314 34.4731 1.35012 34.2745 0.482951 31.0966C-1.11401 25.2244 1.9082 23.3419 2.21729 21.1139C2.86982 16.442 -0.555941 13.8514 3.97738 10.9066C6.44151 9.30905 9.87585 8.03098 12.4173 6.45067C12.6405 4.78401 11.7991 5.55257 12.0567 3.73047C24.0768 1.41613 55.3464 -2.84121 67.6842 2.6942L68.8433 3.39368C70.7837 3.71319 80.9236 8.63548 83.2332 10.6303L83.2246 10.6389ZM99.2715 26.7702C88.3847 23.031 84.418 39.0932 94.0771 42.2797C104.037 45.5526 109.755 30.3712 99.2715 26.7702ZM86.8907 37.4697C85.1478 31.2866 89.269 26.0448 93.8109 24.7581C100.07 22.9792 105.522 27.0552 106.767 31.8652C110.261 45.3194 90.5397 50.4576 86.8907 37.4697V37.4697ZM27.3652 35.5526C28.6101 24.3609 12.1168 22.936 11.1294 33.6182C10.1163 44.4904 26.2147 45.9498 27.3652 35.5526ZM29.5546 36.5111C27.3566 49.2486 7.35161 47.0465 9.21474 33.1432C9.91878 27.8669 15.0016 23.4887 21.2778 24.4818C26.2233 25.2676 30.6192 30.3799 29.5632 36.5111H29.5546ZM98.722 40.7253C98.3099 39.3436 97.5458 37.8324 96.3695 36.9343L94.6437 40.7339C96.6528 41.537 96.7473 41.3384 98.722 40.7253ZM92.6432 39.3954C93.6564 38.221 94.4033 37.3315 95.0129 35.6217L90.9003 35.7339C90.5998 37.9964 91.2695 38.575 92.6347 39.3954H92.6432ZM100.731 39.404C102.07 38.6441 102.8 37.9187 102.414 35.8203L98.3958 35.7253C98.6018 36.6666 98.868 37.0897 99.366 37.8842L100.731 39.404ZM96.421 35.2244C97.4513 35.3971 97.7175 35.0517 97.6144 33.9723L96.069 33.7218C96.0003 35.1208 95.8458 32.8669 96.0518 34.5681L96.421 35.2158V35.2244ZM92.3342 30.3367C90.6256 31.1312 90.5225 31.6925 90.3422 34.2572L94.7382 33.5146L92.3342 30.3367ZM103.144 33.7132C102.938 31.2866 102.783 30.9239 101.22 30.069C100.86 30.3971 100.808 30.3799 100.405 30.8721L98.8422 33.8082L103.144 33.7218V33.7132ZM94.4806 28.385C94.8498 29.9654 95.6912 31.2607 96.7559 32.5042L98.5589 28.0742L94.4892 28.385H94.4806ZM103.805 36.5111C101.212 45.5785 87.0024 42.2279 89.5781 32.4092C91.965 23.2814 106.595 26.7616 103.805 36.5111ZM21.3122 40.8116C20.8056 39.2831 20.1359 38.0051 19.1657 36.7443C18.1182 38.2037 17.646 39.0759 17.2253 41.1398L21.3122 40.8116V40.8116ZM15.1132 39.3954C15.7228 38.9291 15.1304 39.7322 16.1006 38.4628C16.6071 37.7978 16.2809 38.1951 16.6415 37.5819C17.294 36.4852 17.191 36.7961 17.5859 35.613L13.4476 35.7944C13.2243 37.746 14.1258 38.48 15.1132 39.404V39.3954ZM23.8536 39.404C24.6263 38.4282 25.3475 37.6769 24.944 35.8116L20.9344 35.708C21.5354 37.9187 22.3339 38.86 23.8536 39.404ZM20.1703 33.6787L18.6506 33.8341C18.496 36.0534 20.342 36.2434 20.1703 33.6787ZM17.3627 33.6009C16.5814 32.297 15.9289 31.0966 14.2632 30.3971C13.3875 31.5284 13.1041 32.1415 12.9324 34.1536L17.3627 33.6009ZM25.7081 33.7132C25.5364 31.5198 25.2187 31.1225 23.6819 30.0776C22.6773 31.3298 22.0076 32.1329 21.4238 33.7477L25.7081 33.7132ZM21.1061 28.5405C19.5778 27.556 18.6506 28.0483 16.9248 28.5059L19.3718 32.5388L21.1061 28.5405V28.5405ZM20.7799 27.2365C30.8081 29.5681 26.8243 44.2831 17.1566 41.6061C13.7652 40.6648 10.9147 36.7702 12.1082 32.5042C13.0097 29.2745 16.5041 26.2434 20.7799 27.2365V27.2365ZM66.6368 3.26414C65.1085 4.43858 64.0524 3.92045 62.1979 3.4714C50.0833 0.509395 36.3803 2.71147 24.4718 2.90145C32.8344 -1.24363 56.9262 0.984351 66.6282 3.26414H66.6368ZM116.443 22.2711C113.713 23.5837 112.794 21.5975 111.446 20.4662C113.455 20.4921 115.55 20.5439 116.443 22.2711Z" fill="white"/>
<path d="M62.8045 28.0576C62.6902 27.7128 62.558 27.3412 62.4078 26.9429C62.2636 26.5446 62.1074 26.1463 61.9394 25.7481C61.7773 25.3498 61.6063 24.9635 61.4264 24.5891C61.2525 24.2088 61.0757 23.8611 60.896 23.5463L59.8313 28.0679L58.7241 28.0718L60.1849 21.8791L61.0867 21.8759C61.2543 22.1432 61.4279 22.4492 61.6077 22.7938C61.7934 23.1384 61.9733 23.5009 62.1472 23.8812C62.3211 24.2557 62.4891 24.6331 62.6511 25.0135C62.8132 25.3939 62.9543 25.7535 63.0745 26.0924L64.051 21.8657L65.1671 21.8618L63.7063 28.0545L62.8045 28.0576ZM65.4987 28.0483L66.9595 21.8556L70.7988 21.8423L70.5789 22.7806L67.8556 22.79L67.4949 24.3449L69.9057 24.3366L69.6856 25.257L67.2838 25.2653L66.8437 27.1061L69.7723 27.096L69.5524 28.0343L65.4987 28.0483ZM76.0805 22.5294C76.0995 22.8508 76.1215 23.187 76.1465 23.5382C76.1775 23.8893 76.2114 24.2403 76.2483 24.5914C76.2853 24.9365 76.3221 25.2757 76.359 25.6089C76.3959 25.9421 76.4327 26.2515 76.4694 26.5371C76.6349 26.2211 76.8064 25.8752 76.9836 25.4996C77.1609 25.118 77.3381 24.7245 77.5153 24.3192C77.6925 23.9138 77.8666 23.4995 78.0378 23.0762C78.2089 22.6471 78.3741 22.2269 78.5334 21.8156L79.7299 21.8114C79.2636 22.9619 78.7912 24.0499 78.3126 25.0753C77.8399 26.1008 77.3373 27.0788 76.8048 28.0092L75.7155 28.013C75.6668 27.6917 75.6181 27.3764 75.5694 27.067C75.5267 26.7576 75.4839 26.4453 75.4411 26.1299C75.4043 25.8086 75.3675 25.4844 75.3306 25.1571C75.2997 24.8239 75.2688 24.4787 75.2378 24.1217C74.8711 24.8075 74.5073 25.4724 74.1464 26.1166C73.7915 26.7547 73.4127 27.39 73.0101 28.0223L71.903 28.0262C71.8536 27.5085 71.8161 26.9937 71.7905 26.4819C71.7709 25.97 71.7601 25.4462 71.7583 24.9105C71.7549 23.9343 71.7871 22.9104 71.8548 21.8387L72.9798 21.8348C72.9461 22.4063 72.9183 22.9749 72.8964 23.5405C72.8745 24.1001 72.8646 24.6686 72.8666 25.246C72.8673 25.4603 72.8681 25.6775 72.8689 25.8978C72.8696 26.1121 72.8763 26.3293 72.889 26.5495C73.0724 26.2453 73.2618 25.9262 73.4571 25.5922C73.6524 25.2522 73.8446 24.9093 74.0339 24.5634C74.2232 24.2175 74.4065 23.8716 74.5839 23.5257C74.7672 23.1798 74.9387 22.8489 75.0983 22.5328L76.0805 22.5294Z" fill="#0A0A0A"/>
</g>
<defs>
<clipPath id="clip0">
<rect width="120" height="45" fill="white" transform="matrix(-1 0 0 1 120 0)"/>
</clipPath>
</defs>
</svg>
