<svg width="30" height="30" viewBox="0 0 30 30" fill="none" xmlns="http://www.w3.org/2000/svg">
<g clip-path="url(#clip0)">
<path d="M29.7963 28.7361L15.9857 15.0007L29.7239 1.18669C29.995 0.914231 29.994 0.473672 29.7215 0.202606C29.4491 -0.0684602 29.0085 -0.0674166 28.7374 0.205041L15.002 14.017L1.18937 0.278786C0.916917 0.00772013 0.476358 0.0087637 0.205292 0.281221C-0.0657746 0.553679 -0.0647311 0.994238 0.207727 1.2653L14.0183 15.0007L0.281472 28.8134C0.0104057 29.0858 0.0114492 29.5264 0.283907 29.7974C0.556365 30.0685 0.996923 30.0675 1.26799 29.795L15.002 15.9845L28.8119 29.7227C29.0843 29.9937 29.5249 29.9927 29.796 29.7202C30.067 29.4478 30.066 29.0072 29.7935 28.7361H29.7963Z" fill="#3C3838"/>
</g>
<defs>
<clipPath id="clip0">
<rect width="30" height="30" fill="white"/>
</clipPath>
</defs>
</svg>
