<svg width="30" height="30" viewBox="0 0 30 30" fill="none" xmlns="http://www.w3.org/2000/svg">
<path d="M29.7936 28.7361L15.9831 15.0007L29.7213 1.18669C29.9923 0.914231 29.9913 0.473672 29.7188 0.202606C29.4464 -0.0684602 29.0058 -0.0674166 28.7347 0.205041L14.9993 14.017L1.18669 0.278786C0.914231 0.00772013 0.473672 0.0087637 0.202606 0.281221C-0.0684602 0.553679 -0.0674166 0.994238 0.205041 1.2653L14.0156 15.0007L0.278786 28.8134C0.00772012 29.0858 0.0087637 29.5264 0.281221 29.7974C0.553679 30.0685 0.994238 30.0675 1.2653 29.795L14.9993 15.9845L28.8092 29.7227C29.0816 29.9937 29.5222 29.9927 29.7933 29.7202C30.0643 29.4478 30.0633 29.0072 29.7908 28.7361H29.7936Z" fill="#E5E5E5"/>
</svg>
