<svg width="30" height="28" viewBox="0 0 30 28" fill="none" xmlns="http://www.w3.org/2000/svg">
<path d="M25.6333 27.2075H27.759L26.2559 25.7044C25.4454 24.8939 24.9393 23.8398 24.8032 22.6963C26.9181 21.3084 28.4647 19.4824 29.2925 17.3883C30.1198 15.2958 30.2237 12.9924 29.5931 10.7269C28.8365 8.00855 27.0618 5.53087 24.5961 3.7502C21.9167 1.81527 18.5811 0.79248 14.9499 0.79248C10.3756 0.79248 6.5199 2.10672 3.79991 4.59302C1.34953 6.83296 1.52588e-05 9.85432 1.52588e-05 13.1006C1.52588e-05 14.6778 0.321161 16.2124 0.954477 17.6618C1.60987 19.1616 2.56956 20.4971 3.80689 21.631C6.53052 24.1271 10.3838 25.4465 14.9499 25.4465C16.645 25.4465 18.4138 25.2203 19.9931 24.805C21.4879 26.3384 23.5134 27.2075 25.6333 27.2075ZM14.9499 2.55348C22.231 2.55348 26.6987 6.89571 27.8966 11.1991C29.0286 15.2659 27.3599 19.1086 23.4329 21.4784L22.9941 21.7432L23.0076 22.2555C23.0344 23.2695 23.2761 24.2461 23.7088 25.129C22.6552 24.7725 21.6991 24.1262 20.9504 23.2417L20.5782 22.8019L20.0261 22.967C18.4768 23.4304 16.6741 23.6855 14.9499 23.6855C5.88823 23.6855 1.76102 18.1987 1.76102 13.1006C1.76102 10.3549 2.90708 7.79506 4.98812 5.89282C7.37798 3.70823 10.8227 2.55348 14.9499 2.55348Z" fill="white"/>
</svg>
