<svg width="30" height="30" viewBox="0 0 30 30" fill="none" xmlns="http://www.w3.org/2000/svg">
<path d="M1.6216 8.51349H0.810791V1.2162C0.810791 1.10868 0.853503 1.00556 0.929531 0.929531C1.00556 0.853503 1.10868 0.810791 1.2162 0.810791H8.51349V1.6216H1.6216V8.51349Z" fill="#E5E5E5"/>
<path d="M0.928711 1.50366L1.50195 0.930419L12.8516 12.2801L12.2784 12.8533L0.928711 1.50366Z" fill="#E5E5E5"/>
<path d="M29.1893 8.51349H28.3785V1.6216H21.4866V0.810791H28.7839C28.8914 0.810791 28.9945 0.853503 29.0705 0.929531C29.1465 1.00556 29.1893 1.10868 29.1893 1.2162V8.51349Z" fill="#E5E5E5"/>
<path d="M17.1434 12.2817L28.4931 0.9321L29.0663 1.50534L17.7167 12.855L17.1434 12.2817Z" fill="#E5E5E5"/>
<path d="M8.51349 29.1893H1.2162C1.10868 29.1893 1.00556 29.1465 0.929531 29.0705C0.853503 28.9945 0.810791 28.8914 0.810791 28.7839V21.4866H1.6216V28.3785H8.51349V29.1893Z" fill="#E5E5E5"/>
<path d="M0.927246 28.4946L12.2769 17.145L12.8501 17.7182L1.50049 29.0679L0.927246 28.4946Z" fill="#E5E5E5"/>
<path d="M28.7839 29.1893H21.4866V28.3785H28.3785V21.4866H29.1893V28.7839C29.1893 28.8914 29.1465 28.9945 29.0705 29.0705C28.9945 29.1465 28.8914 29.1893 28.7839 29.1893Z" fill="#E5E5E5"/>
<path d="M17.1417 17.72L17.715 17.1467L29.0646 28.4964L28.4914 29.0696L17.1417 17.72Z" fill="#E5E5E5"/>
</svg>
