<svg width="35" height="35" viewBox="0 0 35 35" fill="none" xmlns="http://www.w3.org/2000/svg">
<path d="M24.8331 35H10.167C4.56087 35 0 30.4391 0 24.833V10.167C0 4.56087 4.56087 0 10.167 0H24.833C30.4391 0 35 4.56087 35 10.1669V24.833C35 30.4391 30.4391 35 24.8331 35ZM32.2656 10.167C32.2656 6.0686 28.9314 2.73438 24.8331 2.73438H10.167C6.0686 2.73438 2.73438 6.0686 2.73438 10.1669V24.833C2.73438 28.9314 6.0686 32.2656 10.167 32.2656H24.833C28.9314 32.2656 32.2656 28.9314 32.2656 24.833V10.167Z" fill="white"/>
<path d="M17.5 26.9336C12.2983 26.9336 8.06641 22.7017 8.06641 17.5C8.06641 12.2983 12.2983 8.06641 17.5 8.06641C22.7017 8.06641 26.9336 12.2983 26.9336 17.5C26.9336 22.7017 22.7017 26.9336 17.5 26.9336ZM17.5 10.8008C13.8061 10.8008 10.8008 13.8061 10.8008 17.5C10.8008 21.1939 13.8061 24.1992 17.5 24.1992C21.1939 24.1992 24.1992 21.1939 24.1992 17.5C24.1992 13.8061 21.1939 10.8008 17.5 10.8008Z" fill="white"/>
<path d="M27.0703 25.7031C27.8254 25.7031 28.4375 26.3152 28.4375 27.0703C28.4375 27.8254 27.8254 28.4375 27.0703 28.4375C26.3152 28.4375 25.7031 27.8254 25.7031 27.0703C25.7031 26.3152 26.3152 25.7031 27.0703 25.7031Z" fill="white"/>
</svg>
