<svg width="120" height="41" viewBox="0 0 120 41" fill="none" xmlns="http://www.w3.org/2000/svg">
<g clip-path="url(#clip0)">
<path fill-rule="evenodd" clip-rule="evenodd" d="M19.8285 16.228C17.9598 15.9517 17.022 15.5603 15.0241 16.567C13.9887 17.0885 12.0298 18.1208 10.6078 17.4559C14.5358 16.7632 13.4907 16.5228 16.058 15.7353C16.9868 15.4503 18.2277 15.3391 19.3529 15.4933C19.7351 15.5462 22.2939 15.8634 22.4348 15.9266L22.3286 16.01C22.3088 16.0236 22.2389 16.071 22.2149 16.0852C22.1653 16.1152 22.0089 16.1904 21.9651 16.21C20.6793 16.7806 19.086 16.8629 17.7116 16.7561C18.1018 16.4661 18.9809 16.6574 19.8279 16.228H19.8285ZM97.388 29.1587C97.1649 28.5166 96.6679 27.9128 96.9124 27.1291C96.4587 27.3324 96.4454 27.8218 96.6562 28.2583C96.8179 28.5929 97.0976 28.9461 97.3874 29.1581L97.388 29.1587ZM91.5519 20.5455C90.7182 19.6789 89.6245 18.7666 88.3163 18.3753C88.4951 18.5982 88.7128 18.7045 88.9488 18.9824C89.9474 20.1591 89.5604 20.3029 90.1049 21.2796C90.3862 21.7837 91.7932 23.3522 92.3093 23.6749C92.0083 22.9952 91.2017 22.3314 91.2017 21.3935C91.2017 20.7607 91.3096 20.9379 91.5519 20.5455V20.5455ZM86.6787 13.3847C85.8599 11.6925 82.8981 13.243 84.7337 15.5544C85.1922 16.1315 85.8508 16.5757 86.7182 16.8193L89.1361 17.4962C88.3371 16.3735 87.0374 16.6356 86.1049 15.8519C85.2093 15.0987 84.6253 13.279 86.6787 13.3847V13.3847ZM111.049 11.8778C111.021 11.299 111.013 11.5382 110.685 11.2221C110.246 11.4756 110.247 11.3796 110.144 11.9519L110.331 11.8816C110.732 11.7241 110.493 11.7928 111.049 11.8778V11.8778ZM75.4869 10.6602C75.9203 10.9099 76.3815 11.0281 76.8453 11.2614L79.3993 12.6119C81.3337 13.6648 81.1912 12.2151 80.3307 11.663C79.4255 11.0832 76.5171 10.6711 75.4869 10.6602V10.6602ZM108.483 13.6736C108.265 13.1547 108.043 13.1384 108.253 12.413C108.72 10.7987 108.637 11.7513 107.883 10.2024C107.657 9.73756 107.623 9.36587 107.296 9.26995C107.198 10.1839 109.103 11.7061 106.895 12.535C106.406 12.7182 105.984 12.6996 105.98 13.2763C106.128 13.3471 108.174 13.6643 108.483 13.6736ZM105.942 8.65737C106.342 8.78054 107.498 9.27704 107.409 8.18922L107.354 8.05351C106.908 7.94397 106.675 8.18213 106.219 8.45463L105.993 8.6105C105.985 8.59361 105.959 8.64157 105.943 8.65792L105.942 8.65737ZM87.0534 4.70012C86.9088 4.63472 86.755 4.57641 86.5746 4.52899C85.9597 4.36767 85.8903 4.58622 85.5439 4.16929C85.102 3.63846 84.7091 3.24334 83.6934 3.19865C83.7137 3.21336 83.7425 3.22917 83.7569 3.23789L84.5085 3.7213C85.6614 4.8331 83.5472 4.69958 82.9349 6.25991C83.5936 6.07897 84.1674 5.47729 84.9258 5.18245C85.8108 4.83801 86.5463 4.97535 87.5108 4.9966L87.0534 4.70012V4.70012ZM100.505 3.4815C100.158 3.1605 99.0335 2.79862 98.3156 2.92506C97.6511 3.04169 97.0912 3.88971 97.4958 4.69358C97.609 4.91867 98.0087 5.43151 98.5302 6.46592C99.0565 7.50906 99.8694 7.22893 100.281 6.74932C99.3298 6.9319 99.0501 7.02727 98.8291 6.06753C98.6092 5.11269 98.2697 5.20915 97.9575 4.59548C97.6143 3.92132 97.9917 3.26241 98.6108 3.13597C99.3933 2.97629 99.9137 3.36215 100.505 3.4815V3.4815ZM120 38.7845V39.4237C119.766 39.6684 119.865 39.6739 119.583 39.9082C119.412 40.0505 119.263 40.147 119.077 40.2314C118.66 39.5976 118.863 37.9424 117.53 38.5899C118.628 38.8738 118.547 39.2837 118.598 40.9977H118.457C118.322 40.6865 118.154 40.481 117.854 40.3459C117.544 40.2053 116.62 40.8718 115.101 40.8266C114.192 40.7993 114.359 40.3546 113.484 40.1137C112.412 39.8178 112.723 39.5872 112.114 39.148C111.624 38.7948 110.792 39.0918 110.098 38.8515C108.58 38.325 108.227 35.6774 106.587 35.3428C107.069 35.9069 107.613 36.2071 107.98 36.974C107.661 36.8502 106.984 36.2884 106.579 36.0409L100.584 33.0189C99.1947 32.4957 97.3186 32.3818 96.4395 31.0258C96.297 30.8056 96.3173 30.8596 96.2996 30.665C96.7539 30.9092 97.2983 31.0689 97.9698 31.131C97.1857 30.2852 96.0365 30.6798 95.3976 30.4879C94.1299 30.107 93.1403 26.3917 91.7083 24.8319C90.8719 23.9207 89.7579 23.4819 89.4217 22.3614C88.9093 20.6545 87.2728 18.6205 85.829 18.2619C85.9165 18.3671 85.8578 18.3055 85.9747 18.4281L86.3243 18.7372C86.486 18.869 86.6323 18.9829 86.8089 19.1813C87.553 20.0157 88.6477 21.5379 88.7032 22.7849C88.1593 22.3854 87.9688 21.9864 87.3043 21.6981C85.4644 20.8997 83.0294 22.1167 81.2846 22.6704C78.7572 23.4727 75.3033 23.7146 72.2903 23.3544C69.0215 22.9636 67.401 22.0344 65.1016 20.6109C63.0739 19.3557 61.154 17.8254 59.5596 16.343C59.8516 16.3811 60.6272 17.0504 60.9741 17.2842C63.4689 18.9644 66.0405 20.2686 68.8614 21.2976C69.4208 21.5014 72.1227 22.5358 72.5283 22.1331C72.5352 22.126 72.8838 22.0028 72.428 21.5286C71.7351 20.8082 68.6847 20.2359 67.7512 19.989C63.1038 18.7595 62.5924 16.464 59.2687 14.1297C58.1238 13.3253 55.1556 12.5759 54.9229 11.2854C55.7225 11.8838 56.0993 12.0304 57.2101 12.3683C61.3451 13.6256 63.4123 17.3877 67.6573 18.4756C69.2895 18.8936 71.9497 19.1699 73.0001 18.0237C72.7696 17.2531 71.6225 16.7937 70.744 16.5506C69.7586 16.2781 68.3527 16.0683 67.8547 16.8705C67.9636 17.4559 68.4365 17.6384 68.8288 17.9921C67.6178 17.9905 65.1294 16.6024 64.1601 15.9222C63.5553 15.4977 60.8439 13.3711 60.5855 12.8615C60.9506 13.0217 61.1865 13.2239 61.5404 13.4109C61.8366 13.5673 62.2183 13.7608 62.5391 13.8965C66.0912 15.399 68.3015 14.5101 70.3415 14.6126C72.1648 14.7042 73.797 15.4404 75.6038 15.2868C76.3158 15.2263 77.227 14.3592 76.5187 13.7668C76.0767 13.3972 74.8886 13.2468 74.12 13.2283C72.1888 13.182 70.7125 13.9422 68.9527 13.982C66.4067 14.0398 63.4331 10.8695 61.5495 9.44926C59.5751 7.96086 57.9461 8.24862 57.2415 7.83333C61.5687 7.04962 64.8775 11.6734 68.855 11.5557C69.6957 11.5312 69.8136 11.3786 70.2396 10.8777C69.9844 10.0155 69.1224 9.68306 68.2668 9.36914C65.6258 8.39959 62.6127 8.17505 59.9055 7.54067C56.2183 6.67629 52.6742 5.40862 51.0222 2.7245C51.5266 2.85421 52.7874 3.6401 53.2645 3.94966C58.8012 7.54285 65.8073 6.34166 72.0314 8.82578C73.0973 9.25088 79.3695 10.8101 77.891 8.30694C76.7183 6.32204 72.9292 7.18642 71.0151 7.39188C69.3332 7.57282 66.6986 7.28125 65.1982 6.6594C64.3949 6.3264 63.5714 5.86261 63.2303 5.25166C64.4222 5.57594 64.523 5.9945 66.348 6.24247C72.2684 7.04798 77.0439 1.42031 81.9694 1.62469C84.5229 1.73042 87.1639 1.92226 89.7286 1.7108C92.4657 1.48571 94.1876 0.957605 97.1932 1.23065C99.5572 1.44538 101.161 2.72341 102.871 3.63029C103.83 4.13877 104.726 4.41345 105.821 4.77206C110.967 6.45666 107.914 7.41041 109.395 9.22744L110.841 10.8537C110.991 11.0265 111.166 11.1333 111.325 11.2805C111.417 12.1797 111.12 12.2778 110.679 12.7258C110.302 13.1084 110.139 13.4992 109.843 13.855C109.232 14.5908 108.023 13.9057 107.263 13.9477C107.075 13.958 107.018 13.9733 106.885 14.0365L106.643 14.2316C106.957 14.393 107.463 14.3673 107.82 14.3461C109.466 14.2496 108.591 15.5435 107.292 15.1489C106.47 14.8993 106.297 15.0099 105.423 14.884C104.809 14.7952 104.625 14.3412 103.992 14.1755C102.696 13.8365 99.9089 15.9037 99.0106 14.6464C98.4891 13.9166 98.6065 11.9437 98.7789 11.0178C97.9794 11.7083 98.4608 13.0348 98.1769 13.3831C97.957 12.9231 97.4974 12.4958 96.9209 12.4827C95.8033 12.4582 96.3285 12.3759 95.6426 11.7944C95.1969 12.7961 95.4334 13.4397 95.5567 14.5298C95.0453 14.2518 94.764 13.7439 94.0093 13.4376C93.2514 13.1302 92.8212 13.0544 92.0718 13.4348C92.6221 13.4517 92.8116 13.316 93.4611 13.5253C95.1254 14.0627 96.076 15.6895 96.2623 17.4477C96.3744 18.5088 97.2812 19.9574 97.7627 21.0076C98.4112 22.4219 99.1093 24.3174 99.5652 25.9535C99.8833 27.0947 100.062 27.3901 100.933 27.9531C101.562 28.3602 102.368 28.7559 103.005 29.1298C105.858 30.8056 108.288 32.8707 110.691 34.8594C111.583 35.5984 112.721 36.2191 113.743 36.829C115.447 37.8449 116.178 37.2067 118.09 37.4852C119.306 37.6623 119.4 38.0351 120 38.7861V38.7845ZM32.1769 13.1046C33.5492 10.4897 42.282 14.8235 46.8354 6.25664C47.4311 5.13558 47.477 4.64453 46.4816 3.9066C46.2158 3.70931 44.5729 2.79644 44.2734 2.69725C45.3714 2.60623 50.9822 5.29853 48.0401 7.95759C47.0265 8.87374 45.7818 9.14242 45.1114 10.4319C44.7362 11.1535 44.8275 11.5704 44.283 12.323C43.7957 12.9967 43.4771 13.1264 42.9945 13.6485C44.9075 13.0637 45.0837 11.5808 46.3882 10.1338C46.742 9.74138 47.8907 8.97293 48.6828 9.10918C49.3793 9.22908 50.5194 9.78389 51.1487 10.0749C53.1621 11.0074 55.406 13.0294 56.9912 14.5646C57.4444 15.0034 58.4526 15.7391 57.9562 16.6672C56.4228 16.8193 54.3326 15.0132 53.169 14.5123C53.873 15.5298 58.6571 18.8227 60.1254 19.5606L62.783 20.8082C61.4534 20.6517 56.9063 18.5535 55.6782 17.9889C54.5802 17.4837 53.3323 16.9239 52.1682 16.4765C47.8266 14.8077 46.6785 16.0901 44.5093 15.9081C45.3073 14.2496 47.8683 13.8065 49.2662 13.5199C47.8037 13.3515 46.038 13.9166 45.057 14.4257C42.8766 15.5576 41.326 17.6412 39.7835 19.5083C39.2278 20.1809 37.9949 21.5395 37.2028 22.0535C32.9055 24.8417 27.1948 23.0503 22.9376 21.0649C22.4236 20.8251 21.6913 20.3863 21.1741 20.3149C21.4329 20.1247 21.6667 20.2615 21.964 20.3618C22.2 20.4414 22.4615 20.5258 22.7321 20.6109C25.514 21.4834 27.9522 22.5887 31.214 21.9706C32.1726 21.7886 33.8556 21.5401 33.8636 20.5444C33.4206 19.7857 32.5521 20.0353 31.7419 20.3389C27.2114 22.0366 24.7908 20.7019 20.2058 19.4249C16.2769 18.3306 16.7354 19.292 15.5883 19.5181C16.0906 18.9535 17.1448 18.2821 18.185 18.2821C20.019 18.2821 23.814 20.6114 27.5658 20.3035C28.5148 20.2256 30.0093 20.1324 30.3696 19.413C30.0947 18.6794 28.5623 18.1589 27.6928 17.9093C25.7163 17.342 25.6998 17.5927 24.0446 17.4831C24.4935 17.2755 24.5906 17.191 25.1986 17.149C25.6929 17.1147 26.2794 17.0902 26.7716 17.1163C29.9533 17.2864 32.7112 19.0358 34.0621 19.0358C37.0341 19.0358 37.0981 16.5228 34.7085 16.4912C33.0768 16.4694 30.6605 17.2308 29.6501 16.3103C31.0037 16.2165 36.6428 15.3195 37.8107 14.7592C38.2954 14.5265 39.5411 13.8627 39.2513 13.2027C39.1777 13.1433 39.2113 13.1433 39.073 13.0811C38.8344 12.9738 38.7122 13.0108 38.4053 13.0174C35.2401 13.0828 35.3512 12.1634 32.178 13.1046H32.1769ZM-1.00915e-05 9.34625V8.69934C0.234842 8.40449 0.365077 8.16197 0.839052 8.10747C1.26446 8.05896 3.98501 8.68081 4.58122 8.79417C9.69246 9.76536 15.2985 9.62638 19.8274 7.51614C22.3414 6.34493 24.9525 4.68323 27.2963 3.17303C29.2028 1.9446 31.1489 0.92872 33.4675 0.424595C33.8679 0.337395 35.7766 0.0801545 35.9634 -0.00268555H39.4824C39.6634 0.0905095 42.0114 0.427865 42.4864 0.53741C44.4442 0.98867 49.1594 2.71196 50.1383 3.75945C49.3243 3.60631 48.1437 3.07439 47.3105 2.77791C45.8325 2.25198 44.1256 1.84541 42.5531 2.44655C41.8416 2.7185 41.8016 2.57135 41.0202 2.41003C39.8288 2.16424 38.8361 2.08467 37.5972 1.94297C32.7624 1.39034 29.4222 3.1387 25.8743 5.49528C19.0428 10.033 12.9035 11.6113 4.77176 10.1131C4.0672 9.98336 2.06616 9.32663 1.61407 9.46833C1.49077 10.1452 2.34638 10.8297 2.78619 11.0058C2.74883 11.0298 2.74936 11.1262 2.41417 11.0254C2.36453 11.0101 2.12273 10.9044 2.00744 10.8635C0.659705 10.3839 0.725363 10.2798 -0.00107865 9.34571L-1.00915e-05 9.34625ZM48.3689 8.49387C48.4485 8.40395 48.4026 8.44319 48.5237 8.3549C49.256 7.82298 51.0153 7.31177 49.9531 5.82064C49.2448 4.82602 48.299 4.32189 47.3858 3.51202C48.1842 3.5856 51.422 5.51054 52.3625 6.19397C52.884 6.57329 53.311 6.98258 53.8346 7.32921C56.0534 8.80071 59.1241 8.25407 61.2783 10.1921C61.4353 10.3332 62.5855 11.4679 61.818 11.7508C61.407 11.9023 60.0582 11.4941 59.6627 11.3677C58.388 10.9584 57.178 10.2913 56.1522 9.67489C55.6243 9.3577 55.0766 9.03887 54.6016 8.71078C52.1426 7.01311 51.7332 8.29822 48.3689 8.49278V8.49387ZM40.1021 4.33334C40.0861 4.35187 40.0573 4.35132 40.0477 4.38348L39.5347 4.64235C36.4069 5.74925 34.574 5.66096 32.0088 9.11517C31.7915 9.40784 31.4467 9.98336 31.2226 10.1948C31.3085 9.24325 32.558 6.70136 33.7574 5.72145C34.4496 5.15629 34.8046 5.11814 35.2311 4.83528C32.8526 4.51482 29.8503 5.77704 28.1657 6.61253C26.8938 7.24364 22.9611 9.7223 22.2907 9.39367C22.8682 9.0138 23.4692 8.69062 24.1049 8.30639C26.273 6.99512 27.2407 6.20051 29.8337 4.82329C34.5036 2.343 37.0053 4.31971 40.101 4.33334H40.1021ZM7.50139 17.9066C7.09734 18.1971 7.05517 18.1289 6.64632 18.5202C6.64792 19.0761 6.6303 18.9355 6.97671 19.2587C7.1347 19.4059 7.00446 19.1557 7.10961 19.4135C6.73919 19.8315 5.82807 19.7885 5.27296 19.9977C4.6853 20.2196 4.14994 20.6381 4.06134 21.2349C4.40081 21.4055 4.65006 21.715 5.23826 21.6551C5.68075 21.6099 6.06132 21.3924 6.55344 21.3924L7.93533 21.4818C8.34526 21.4747 8.7349 21.4807 9.14162 21.4791C11.528 21.4698 12.9975 19.1296 14.2844 19.7667C13.7591 20.1024 13.3652 20.2234 12.8389 20.6479C12.3559 21.0376 12.065 21.3036 11.5836 21.6306C9.88088 22.786 8.11094 20.564 4.94044 22.4819C3.76777 23.1914 3.65888 23.0481 2.44085 22.471C2.90255 22.2017 2.88974 22.3647 3.34129 21.9576L3.04293 21.7755C2.94952 21.7303 2.87586 21.7085 2.78459 21.6616C2.5396 21.5357 2.52252 21.509 2.32076 21.2981C2.33464 21.2818 2.35652 21.2605 2.3656 21.2518C2.66183 20.9553 2.77392 20.9128 3.00183 20.5019C3.83396 19.0037 4.16222 19.4337 5.84461 19.1601C6.02022 18.1453 6.45256 17.9191 7.50139 17.906V17.9066Z" fill="white"/>
</g>
<defs>
<clipPath id="clip0">
<rect width="120" height="41" fill="white" transform="matrix(-1 0 0 1 120 0)"/>
</clipPath>
</defs>
</svg>
