<svg width="113" height="55" viewBox="0 0 113 55" fill="none" xmlns="http://www.w3.org/2000/svg">
<path d="M29 40.7266C28.3747 40.7266 27.8672 41.2341 27.8672 41.8594C27.8672 42.4847 28.3747 42.9922 29 42.9922C29.6253 42.9922 30.1328 42.4847 30.1328 41.8594C30.1328 41.2341 29.6253 40.7266 29 40.7266Z" fill="white"/>
<path d="M53.1388 3.95207C50.3511 2.82934 46.7268 2.21094 42.9336 2.21094C39.1404 2.21094 35.516 2.82934 32.7284 3.95207C31.0811 4.61556 29.8233 5.42643 29 6.3363C28.1767 5.42643 26.9189 4.61567 25.2716 3.95218C22.4839 2.82934 18.8596 2.21094 15.0664 2.21094C11.2732 2.21094 7.64886 2.82934 4.86124 3.95207C1.72641 5.2147 0 7.01021 0 9.00781V36.1953C0 38.1929 1.72641 39.9884 4.86124 41.2511C7.45391 42.2953 10.7706 42.9025 14.2734 42.9824V42.9922C14.2734 46.8671 20.6045 49.7891 29 49.7891C37.3955 49.7891 43.7266 46.8671 43.7266 42.9922V42.9824C47.2294 42.9025 50.5461 42.2953 53.1388 41.2511C56.2736 39.9884 58 38.1929 58 36.1953V9.00781C58 7.01021 56.2736 5.2147 53.1388 3.95207ZM55.7344 29.3984C55.7344 30.3655 54.4154 31.4974 52.2923 32.3526C49.9944 33.2781 46.9093 33.838 43.7266 33.9185V29.3984C43.7266 29.3952 43.7263 29.3919 43.7263 29.3887C47.2293 29.3088 50.546 28.7016 53.1389 27.6573C54.1565 27.2475 55.0246 26.7812 55.7345 26.2703L55.7344 29.3984ZM27.8672 15.8047C27.8672 16.7718 26.5483 17.9037 24.4251 18.7588C21.9367 19.7611 18.5256 20.3359 15.0664 20.3359C11.6073 20.3359 8.19613 19.7611 5.70768 18.7588C3.58456 17.9037 2.26562 16.7718 2.26562 15.8047V12.6765C2.97556 13.1874 3.84363 13.6537 4.86124 14.0636C7.64886 15.1863 11.2732 15.8047 15.0664 15.8047C18.8596 15.8047 22.4839 15.1863 25.2716 14.0636C26.2892 13.6537 27.1573 13.1874 27.8672 12.6765V15.8047ZM4.86124 20.8604C7.64886 21.9832 11.2732 22.6016 15.0664 22.6016C18.8596 22.6016 22.4839 21.9832 25.2716 20.8604C26.2892 20.4506 27.1573 19.9843 27.8672 19.4734V22.6216C24.9366 22.7208 22.1261 23.2018 19.8529 24.0024C17.5729 24.8054 15.9322 25.8763 15.04 27.1325C11.5899 27.1295 8.18978 26.5554 5.70768 25.5557C3.58456 24.7006 2.26562 23.5686 2.26562 22.6016V19.4734C2.97556 19.9843 3.84363 20.4506 4.86124 20.8604ZM2.26562 26.2703C2.97556 26.7812 3.84363 27.2475 4.86124 27.6573C7.45402 28.7015 10.7708 29.3087 14.2738 29.3887C14.2738 29.392 14.2736 29.3953 14.2736 29.3984V33.9185C11.0907 33.838 8.0057 33.2781 5.70779 32.3526C3.58456 31.4974 2.26562 30.3655 2.26562 29.3984V26.2703ZM16.6589 28.8419C17.4984 26.8881 22.344 24.8672 29 24.8672C35.656 24.8672 40.5016 26.8881 41.3402 28.8396C41.4215 29.03 41.4609 29.2128 41.4609 29.3984C41.4609 30.3944 40.2331 31.5007 38.1763 32.3577C35.7435 33.3714 32.4846 33.9297 29 33.9297C25.5154 33.9297 22.2565 33.3714 19.8237 32.3577C17.7669 31.5007 16.5391 30.3944 16.5391 29.3984C16.5391 29.2128 16.5786 29.03 16.6589 28.8419ZM55.7344 22.6016C55.7344 23.5686 54.4154 24.7006 52.2923 25.5557C49.8103 26.5554 46.4103 27.1295 42.9603 27.1325C42.0688 25.877 40.4279 24.8057 38.1471 24.0024C35.8739 23.2017 33.0634 22.7208 30.1328 22.6216V19.4734C30.8427 19.9843 31.7108 20.4506 32.7284 20.8604C35.516 21.9832 39.1404 22.6016 42.9336 22.6016C46.7268 22.6016 50.3511 21.9832 53.1388 20.8604C54.1564 20.4506 55.0244 19.9843 55.7344 19.4734V22.6016ZM55.7344 15.8047C55.7344 16.7718 54.4154 17.9037 52.2923 18.7588C49.8039 19.7611 46.3927 20.3359 42.9336 20.3359C39.4744 20.3359 36.0633 19.7611 33.5749 18.7588C31.4517 17.9037 30.1328 16.7718 30.1328 15.8047V12.6765C30.8427 13.1874 31.7108 13.6537 32.7284 14.0636C35.516 15.1863 39.1404 15.8047 42.9336 15.8047C46.7268 15.8047 50.3511 15.1863 53.1388 14.0636C54.1564 13.6537 55.0244 13.1874 55.7344 12.6765V15.8047ZM33.5749 6.05366C36.0633 5.05135 39.4744 4.47656 42.9336 4.47656C46.3927 4.47656 49.8039 5.05135 52.2923 6.05366C54.4154 6.90882 55.7344 8.04073 55.7344 9.00781C55.7344 9.97489 54.4154 11.1068 52.2923 11.962C49.8039 12.9643 46.3927 13.5391 42.9336 13.5391C39.4744 13.5391 36.0633 12.9643 33.5749 11.962C31.4517 11.1068 30.1328 9.97489 30.1328 9.00781C30.1328 8.04073 31.4517 6.90882 33.5749 6.05366ZM5.70768 6.05366C8.19613 5.05135 11.6073 4.47656 15.0664 4.47656C18.5256 4.47656 21.9367 5.05135 24.4251 6.05366C26.5483 6.90882 27.8672 8.04073 27.8672 9.00781C27.8672 9.97489 26.5483 11.1068 24.4251 11.962C21.9367 12.9643 18.5256 13.5391 15.0664 13.5391C11.6073 13.5391 8.19613 12.9643 5.70768 11.962C3.58456 11.1068 2.26562 9.97489 2.26562 9.00781C2.26562 8.04073 3.58456 6.90882 5.70768 6.05366ZM5.70768 39.1495C3.58456 38.2943 2.26562 37.1624 2.26562 36.1953V33.0672C2.97556 33.5781 3.84363 34.0443 4.86124 34.4542C7.45391 35.4984 10.7706 36.1056 14.2734 36.1856V40.7155C11.0906 40.6349 8.00559 40.0751 5.70768 39.1495ZM38.1763 45.9514C35.7435 46.9652 32.4846 47.5234 29 47.5234C25.5154 47.5234 22.2565 46.9652 19.8237 45.9514C17.7669 45.0945 16.5391 43.9882 16.5391 42.9922V39.9301C16.7956 40.1157 17.0792 40.3003 17.3937 40.4822C19.1528 41.5002 21.5463 42.2531 24.3156 42.6596C24.3714 42.6678 24.4267 42.6717 24.4816 42.6717C25.0344 42.6717 25.5182 42.2665 25.6009 41.7033C25.6917 41.0843 25.2635 40.5088 24.6447 40.418C19.3799 39.6451 16.5391 37.6656 16.5391 36.1953V33.1231C19.1031 34.9993 23.629 36.1953 29 36.1953C34.371 36.1953 38.8969 34.9993 41.4609 33.1231V36.1953C41.4609 37.6656 38.6201 39.6451 33.3553 40.418C32.7364 40.5088 32.3082 41.0843 32.3991 41.7033C32.4818 42.2666 32.9656 42.6717 33.5184 42.6717C33.5732 42.6717 33.6287 42.6678 33.6844 42.6596C36.4536 42.2531 38.8471 41.5003 40.6063 40.4822C40.9207 40.3003 41.2044 40.1157 41.4609 39.9301V42.9922C41.4609 43.9882 40.2331 45.0945 38.1763 45.9514ZM52.2923 39.1495C49.9944 40.075 46.9093 40.6349 43.7266 40.7153V36.1855C47.2294 36.1055 50.5461 35.4983 53.1388 34.4541C54.1564 34.0442 55.0244 33.5779 55.7344 33.0671V36.1953C55.7344 37.1624 54.4154 38.2943 52.2923 39.1495Z" fill="white"/>
<path d="M112.616 19.758L106.472 3.78181C105.307 0.761666 101.915 -0.742684 98.8948 0.421694C98.851 0.438635 98.8072 0.456034 98.7637 0.474006L68.0568 13.2029C65.1329 14.4023 63.6959 17.712 64.8159 20.6672L65.6603 22.9209H63.7234C60.564 22.9244 58.0035 25.4849 58 28.6443V49.2487C58.0035 52.4082 60.564 54.9686 63.7234 54.9722H102.643C105.802 54.9686 108.363 52.4082 108.366 49.2487V28.6443C108.364 28.3337 108.337 28.0237 108.284 27.7176L109.347 27.2872C112.297 26.0781 113.747 22.739 112.616 19.758ZM63.7234 24.7525H102.643C104.698 24.7583 106.394 26.3635 106.512 28.4155H59.8544C59.9725 26.3634 61.668 24.7582 63.7234 24.7525ZM72.9277 19.236L79.0485 16.1747L80.3068 19.3221L74.1859 22.3825L72.9277 19.236ZM106.535 49.2488C106.532 51.3973 104.791 53.1383 102.643 53.1408H63.7234C61.575 53.1383 59.834 51.3973 59.8315 49.2488V37.573H106.535V49.2488ZM106.535 35.7415H59.8315V30.247H106.535V35.7415ZM108.66 25.595L107.703 25.9824C106.715 24.1023 104.767 22.924 102.643 22.921H77.2051L81.88 20.5831C82.3063 20.3703 82.4983 19.8662 82.3214 19.4238L80.3791 14.5703C80.1913 14.1007 79.6584 13.8722 79.1889 14.06C79.1652 14.0695 79.1419 14.0799 79.1192 14.0913L71.3545 17.976C70.9286 18.1891 70.7371 18.6931 70.914 19.1353L72.4287 22.921H67.6154L66.5311 20.0291C65.7625 17.9986 66.7498 15.7253 68.7582 14.9009L99.4643 2.17192C101.517 1.32073 103.871 2.29475 104.723 4.34752C104.736 4.37945 104.749 4.41162 104.761 4.4439L110.906 20.4201C111.683 22.4685 110.687 24.7634 108.66 25.595Z" fill="white"/>
<path d="M90.9413 50.5657C92.6478 51.5571 94.7551 51.5571 96.4616 50.5657C99.0854 52.09 102.448 51.1987 103.973 48.5748C105.497 45.951 104.606 42.5881 101.982 41.0637C101.14 40.5745 100.183 40.3178 99.2088 40.3201C98.2434 40.3206 97.2954 40.5771 96.4616 41.0637C93.8377 39.5393 90.4748 40.4306 88.9505 43.0544C87.4261 45.6784 88.3175 49.0412 90.9413 50.5657ZM97.9927 42.3752C98.3822 42.2316 98.7936 42.1561 99.2088 42.1517C101.232 42.1517 102.872 43.7917 102.872 45.8147C102.872 47.8378 101.232 49.4778 99.2088 49.4778C98.7936 49.4734 98.3822 49.3979 97.9927 49.2543C99.614 47.2478 99.614 44.3816 97.9927 42.3752ZM96.4616 43.4173C97.6826 44.7825 97.6826 46.847 96.4616 48.2122C95.2405 46.847 95.2405 44.7824 96.4616 43.4173ZM93.7143 42.1517C94.1295 42.156 94.5409 42.2316 94.9304 42.3752C93.3091 44.3816 93.3091 47.2479 94.9304 49.2543C94.5409 49.3979 94.1295 49.4734 93.7143 49.4778C91.6913 49.4778 90.0513 47.8378 90.0513 45.8147C90.0513 43.7916 91.6913 42.1517 93.7143 42.1517Z" fill="white"/>
<path d="M96.6285 18.9267L97.3724 20.6003L106.109 16.7169L105.365 15.0433L96.6285 18.9267Z" fill="white"/>
<path d="M103.415 11.1662L90.7964 16.9907L91.5636 18.6528L104.182 12.8284L103.415 11.1662Z" fill="white"/>
</svg>
