<svg width="111" height="51" viewBox="0 0 111 51" fill="none" xmlns="http://www.w3.org/2000/svg">
<path d="M26.9707 12.7498C30.6946 12.7498 33.7134 9.89564 33.7134 6.37489C33.7134 2.85413 30.6946 0 26.9707 0C23.2468 0 20.228 2.85413 20.228 6.37489C20.228 9.89564 23.2468 12.7498 26.9707 12.7498Z" fill="white"/>
<path d="M37.0711 30.0768L35.5405 18.806C35.3685 17.1708 33.9256 15.9373 32.1894 15.9373H30.3419C29.8935 15.9373 29.4653 16.1062 29.1484 16.4026L26.9705 18.4617L24.7927 16.4026C24.4758 16.1062 24.0476 15.9373 23.5992 15.9373H21.7551C20.0155 15.9373 18.5725 17.1708 18.404 18.7645L16.87 30.08C16.8093 30.5326 16.9577 30.9916 17.2779 31.3326C17.5982 31.6769 18.0567 31.8745 18.5422 31.8745H20.3627L21.7719 48.1305C21.9405 49.7624 23.3868 50.9992 25.1264 50.9992H28.818C30.5576 50.9992 32.0006 49.7624 32.1759 48.1018L33.5817 31.8745H35.3989C35.8844 31.8745 36.3429 31.6769 36.6631 31.3326C36.9868 30.9916 37.1351 30.5326 37.0711 30.0768Z" fill="white"/>
<path d="M43.8274 12.7498C47.5513 12.7498 50.5701 9.89564 50.5701 6.37489C50.5701 2.85413 47.5513 0 43.8274 0C40.1035 0 37.0847 2.85413 37.0847 6.37489C37.0847 9.89564 40.1035 12.7498 43.8274 12.7498Z" fill="white"/>
<path d="M10.114 0C6.39543 0 3.37134 2.85914 3.37134 6.37489C3.37134 9.89064 6.39543 12.7498 10.114 12.7498C13.8292 12.7498 16.8567 9.89064 16.8567 6.37489C16.8567 2.85914 13.8292 0 10.114 0Z" fill="white"/>
<path d="M53.9277 30.0768L52.3971 18.8091C52.2252 17.1708 50.7856 15.9373 49.046 15.9373H47.1985C46.7502 15.9373 46.322 16.1062 46.0051 16.4026L43.8272 18.4617L41.6493 16.4026C41.3324 16.1062 40.9043 15.9373 40.4592 15.9373H38.6118C38.4027 15.9373 38.2139 16.0074 38.015 16.0424C38.4499 16.7692 38.7904 17.5565 38.8916 18.4394L40.4188 29.6719C40.6076 31.0394 40.1558 32.4163 39.1849 33.4523C38.7264 33.9495 38.1398 34.3001 37.5127 34.5742L38.632 44.943C38.8039 46.5781 40.2469 47.8117 41.9865 47.8117H45.6781C47.4177 47.8117 48.8606 46.575 49.0359 44.9143L50.4384 31.8745H52.2555C52.741 31.8745 53.1995 31.6768 53.5198 31.3326C53.8434 30.9915 53.9918 30.5326 53.9277 30.0768Z" fill="white"/>
<path d="M14.7462 33.4363C13.7887 32.4131 13.3437 31.0394 13.5257 29.6783L15.0597 18.3597C15.1474 17.5119 15.4777 16.7469 15.8992 16.0393C15.7104 16.0074 15.5317 15.9373 15.3328 15.9373H13.4853C13.0369 15.9373 12.6087 16.1062 12.2918 16.4026L10.114 18.4617L7.93607 16.4026C7.61917 16.1062 7.19101 15.9373 6.74599 15.9373H4.89839C3.15878 15.9373 1.71585 17.1708 1.54729 18.7645L0.0133291 30.0799C-0.0473549 30.5326 0.100984 30.9915 0.421261 31.3326C0.741537 31.6768 1.20341 31.8745 1.68551 31.8745H3.50603L4.91525 44.943C5.08382 46.575 6.53012 47.8117 8.26973 47.8117H11.9613C13.7009 47.8117 15.1439 46.575 15.3192 44.9143L16.4385 34.571C15.8081 34.2937 15.2182 33.9399 14.7462 33.4363Z" fill="white"/>
<path d="M91.7295 23.7868C94.5853 23.7868 97.0582 22.7626 99.0787 20.7417C101.099 18.7212 102.124 16.249 102.124 13.3928C102.124 10.5377 101.099 8.06514 99.0784 6.04396C97.0575 4.02377 94.585 2.99951 91.7295 2.99951C88.8733 2.99951 86.4011 4.02377 84.3806 6.04429C82.36 8.06481 81.3354 10.5374 81.3354 13.3928C81.3354 16.249 82.36 18.7215 84.3809 20.7421C86.4018 22.7623 88.8743 23.7868 91.7295 23.7868V23.7868Z" fill="white"/>
<path d="M109.916 36.1826C109.858 35.3417 109.74 34.4245 109.567 33.4559C109.391 32.48 109.166 31.5575 108.896 30.7143C108.617 29.8428 108.238 28.9822 107.769 28.1575C107.282 27.3015 106.711 26.5561 106.069 25.9427C105.399 25.301 104.578 24.7851 103.628 24.4088C102.682 24.0345 101.633 23.8448 100.512 23.8448C100.071 23.8448 99.645 24.0256 98.8222 24.5612C98.3159 24.8915 97.7236 25.2734 97.0624 25.6958C96.4971 26.056 95.7313 26.3934 94.7854 26.699C93.8626 26.9976 92.9256 27.149 92.0007 27.149C91.0759 27.149 90.1392 26.9976 89.2154 26.699C88.2705 26.3938 87.5047 26.0563 86.94 25.6961C86.2852 25.2776 85.6925 24.8957 85.1786 24.5609C84.3568 24.0252 83.9305 23.8445 83.4899 23.8445C82.3679 23.8445 81.3196 24.0345 80.3737 24.4091C79.4249 24.7848 78.6034 25.3007 77.9321 25.943C77.2911 26.5567 76.7192 27.3018 76.2332 28.1575C75.7647 28.9822 75.3854 29.8425 75.1062 30.7147C74.8366 31.5578 74.6111 32.48 74.4359 33.4559C74.2624 34.4232 74.1445 35.3408 74.0863 36.1836C74.029 37.0093 74 37.8663 74 38.7319C74 40.9845 74.7161 42.8082 76.1282 44.1531C77.5228 45.4803 79.3682 46.1535 81.6123 46.1535H102.391C104.635 46.1535 106.48 45.4806 107.875 44.1531C109.287 42.8092 110.003 40.9852 110.003 38.7316C110.003 37.8621 109.974 37.0044 109.916 36.1826V36.1826Z" fill="white"/>
</svg>
