<svg width="119" height="61" viewBox="0 0 119 61" fill="none" xmlns="http://www.w3.org/2000/svg">
<path fill-rule="evenodd" clip-rule="evenodd" d="M34.1673 16.7049C33.6542 16.9613 33.6937 16.5551 33.4365 17.447C33.0202 18.8904 34.5381 19.858 35.6167 19.117C36.9092 18.2291 36.0033 15.7871 34.1673 16.7048V16.7049ZM16.9445 28.6737C16.9445 27.4755 17.2827 27.1235 18.479 27.1239L71.3793 27.1235C72.5729 27.1235 72.9139 27.478 72.9139 28.6737V47.4549C72.9767 58.9456 73.6952 58.052 69.616 58.0525H19.1403C17.4278 58.0525 16.9445 58.1492 16.9445 56.2932V28.6737V28.6737ZM33.4126 23.2294L56.4755 23.3151L56.4988 25.0255C55.4316 25.2757 34.4269 25.2757 33.3514 25.0254L33.4126 23.2294V23.2294ZM53.414 12.9858C51.2483 16.735 49.1838 12.8599 48.5466 10.1814C50.6231 10.1704 52.922 11.6188 53.414 12.9858V12.9858ZM41.3142 10.1791C40.9328 11.8519 39.29 16.0583 37.1153 13.9659C35.9317 12.8271 36.7864 12.0201 37.9828 11.3224C38.8359 10.8249 40.1155 10.2035 41.3142 10.179V10.1791ZM29.9152 8.8436C30.749 9.34205 32.9284 12.0983 33.6924 12.9834C34.0603 13.4094 34.304 13.5715 34.6532 14.002C37.3513 17.3278 40.3083 17.8252 42.2823 12.9842C42.7034 11.9513 44.0936 8.3166 44.9293 7.81379C45.8383 8.36347 47.1858 12.0284 47.6429 13.1402C48.3978 14.9765 49.3556 16.7785 51.9112 16.4503C54.7265 16.0887 57.6776 10.1275 60.0273 8.86904L56.6865 21.2993L33.2558 21.3029C32.8824 20.5858 30.0075 10.0108 29.9152 8.84367V8.8436ZM44.3362 2.13616C46.5061 1.18786 47.9179 4.71856 45.7172 5.64204C43.4757 6.5826 41.6337 3.31723 44.3362 2.13616ZM24.6508 59.9801L65.4281 59.9788C68.2455 59.9787 72.8506 60.6938 74.2668 58.7425C75.3294 57.2784 74.8356 51.3759 74.8356 49.2226C74.8356 42.4432 74.8395 35.6636 74.8419 28.8844C74.8433 24.7148 72.2523 25.142 68.514 25.142C65.3256 25.1418 61.5276 25.327 58.4133 25.0997C58.4133 21.0826 60.2684 15.3928 61.3704 11.3372C61.6674 10.2442 62.2467 8.98899 61.7035 7.88223C61.2824 7.02436 60.083 6.52584 58.8725 7.07448C58.003 7.46861 56.2127 10.2548 54.8342 11.3713C53.6422 10.2782 53.4364 9.73396 51.396 8.93181C48.8811 7.94314 47.9145 8.38068 47.2068 7.4319C47.3222 6.59546 47.279 7.09391 47.8487 6.4088C51.8723 1.57023 43.0199 -3.11852 41.2561 2.69946C40.9506 3.70686 41.0181 4.70618 41.4849 5.60367C42.4151 7.39242 44.1932 7.40293 40.47 8.28956C37.3418 9.03447 36.879 9.78699 35.0104 11.3369C33.8587 10.4523 32.0325 7.61807 30.9679 7.09114C29.7797 6.50289 28.5674 7.04081 28.1543 7.88182C27.1467 9.933 31.4452 18.6861 31.4452 25.0998C28.2662 25.3319 24.3797 25.142 21.1241 25.142C17.1958 25.1418 14.9942 24.756 15.0178 29.1076C15.0545 35.8835 15.0175 42.6669 15.02 49.4437C15.0241 60.6995 13.4875 59.9606 24.6508 59.9802V59.9801ZM53.6073 32.0255C57.8828 31.7895 64.425 31.9551 69.0253 31.9551L69.0215 53.2044L53.6141 53.1081L53.6017 33.9766L53.6072 32.0255H53.6073ZM37.2138 31.9545C39.8484 31.9549 49.875 31.7803 51.6885 32.0578L51.6817 53.1383C49.4997 53.3542 40.0997 53.2007 37.2138 53.2007V31.9545ZM20.8387 31.9568L35.2633 31.9551L35.2309 53.2007H20.8397L20.8387 32.8719V31.9568V31.9568ZM18.8987 34.1976L18.9116 51.2112C18.9109 53.2536 18.2622 55.159 20.463 55.159L69.1752 55.1562C71.6964 55.1557 70.9599 53.4934 70.9599 47.6758C70.9599 45.9464 71.1717 31.5135 70.7248 30.2229C69.0513 29.6487 25.8311 30.0002 20.2425 30.0002C18.451 30.0002 18.8987 31.3709 18.8987 34.1975V34.1976ZM24.7288 46.1292C24.3478 43.9291 25.9501 42.0071 27.7575 41.6794C30.1038 41.2541 32.0538 42.9336 32.3225 44.8463C33.0472 50.0055 25.5248 50.7249 24.7288 46.1292V46.1292ZM27.2855 39.6819C25.5577 39.6693 24.4347 39.1255 23.9467 37.7319C25.6604 37.7387 27.0224 38.2222 27.2855 39.6819ZM30.1934 39.7214C30.7822 38.0977 31.7733 35.9735 31.3487 33.8713L29.6054 33.8612C29.3004 35.3037 29.2866 36.7027 28.8158 37.9091C27.8834 37.2258 27.7461 36.5018 25.9693 35.9798C23.2057 35.1676 20.3835 35.67 22.4888 39.2383C23.3728 40.7367 23.7824 40.435 24.4723 41.2682C23.8134 42.3115 23.0889 42.8126 22.8194 44.5791C22.199 48.6443 26.0665 52.4561 30.5304 50.9165C32.6128 50.1984 34.519 47.9577 34.3261 45.0446C34.0724 41.215 30.8223 40.3723 30.1934 39.7215V39.7214ZM43.6634 41.8889C48.3722 40.0691 50.94 47.2723 46.3106 49.0619C41.6792 50.8523 38.6675 43.8197 43.6634 41.8889ZM43.6638 39.6823C41.622 39.6581 40.9337 39.1919 40.333 37.7655C42.1528 37.6641 43.3597 38.1991 43.6638 39.6823ZM46.6032 39.7214C47.4169 37.4505 47.7956 36.6066 47.8016 33.8638L45.8815 33.9867C45.8691 35.4772 45.6899 36.768 45.1883 37.9192C44.0907 37.206 44.1655 36.5309 42.4702 36.0108C41.3665 35.6722 39.5101 35.6943 38.4714 35.935C37.1924 38.7239 40.499 40.7454 40.8679 41.2682C40.074 42.4364 39.5362 42.81 39.253 44.4146C38.4746 48.8241 42.6696 52.3148 46.7031 50.9975C50.8724 49.6358 51.8646 44.5395 49.3272 41.716C48.3728 40.654 48.2581 40.7623 47.3029 40.2076L46.6034 39.7214H46.6032ZM65.0096 46.5711C63.5251 51.2379 56.1717 49.3913 57.6442 44.2894C58.1307 42.6038 60.2093 41.1077 62.4733 41.7735C64.1852 42.277 65.748 44.2497 65.0096 46.5711ZM60.0802 39.6634C58.3528 39.7138 57.1604 39.101 56.7295 37.7297C58.4207 37.7404 59.7885 38.2194 60.0802 39.6634ZM61.4607 37.8509C60.5052 36.9533 60.3301 36.4586 58.7833 35.9904C55.9486 35.1323 53.2995 35.7276 55.2789 39.2937C56.0928 40.76 56.4309 40.3134 57.2587 41.2681C52.5741 47.6134 58.5071 52.3725 63.0197 51.0056C68.4078 49.3737 68.4148 41.5344 62.9546 39.9481C63.3844 38.2473 64.711 35.8864 64.0484 33.8577L62.4255 33.8561C62.0908 35.1046 62.3504 37.0416 61.4607 37.8509H61.4607ZM19.6784 16.521C19.901 16.2279 21.493 14.5611 21.7854 14.3385C22.0661 14.5547 23.6904 16.2489 23.8932 16.521L22.0245 18.3433L21.2027 17.9822C20.9506 17.7207 20.8793 17.6523 20.658 17.4264C20.1719 16.93 20.1281 16.9375 19.6784 16.521V16.521ZM21.0798 9.86636C20.2405 11.9317 20.834 13.0073 18.9187 14.5239C17.5945 15.5724 13.7863 15.4157 15.2766 17.0546C15.9255 17.7682 18.1941 17.1679 19.8305 19.3707C21.273 21.3126 20.1077 23.7623 22.554 23.0363C23.2857 20.6095 22.9309 19.643 24.8728 18.2898C26.6471 17.0533 29.3643 17.9671 28.1948 15.6461C26.1987 15.1203 25.5125 15.5456 24.1088 13.9676C22.5665 12.2338 23.2186 11.7687 22.4874 9.78685L21.0799 9.86636H21.0798ZM65.9661 16.521C66.1887 16.2279 67.7807 14.5611 68.0732 14.3385C68.264 14.4855 70.1029 16.3958 70.1732 16.521L68.0732 18.5814C68.0322 18.5413 67.9821 18.4822 67.9564 18.4548L65.9661 16.521V16.521ZM61.3382 16.3C61.5059 17.6529 62.116 17.3082 63.3024 17.5461C66.7883 18.245 66.7936 21.3636 67.3039 23.125L68.8417 23.0363C69.4877 20.8934 69.161 19.9201 70.7734 18.5596C72.8321 16.8227 74.9852 17.9802 74.7899 16.3544C74.6384 15.0929 72.1123 15.718 70.6105 14.1941C68.7632 12.3195 69.6159 11.9513 68.7655 9.79549L67.3804 9.88094C66.5598 11.8745 67.1646 12.7554 65.4409 14.3191C64.8712 14.8359 64.2626 15.1638 63.3687 15.3459C60.8524 15.8585 62.03 15.4941 61.338 16.3L61.3382 16.3ZM44.3935 15.6715C41.5249 16.8117 43.5217 20.0472 45.6384 19.2304C47.7117 18.4304 46.7421 14.7379 44.3935 15.6715ZM54.4213 16.6908C54.3681 16.7154 53.0948 16.9715 53.7539 18.4998C54.0197 19.1163 54.6882 19.6042 55.596 19.2726C57.2214 18.6787 56.5314 15.7167 54.4212 16.6908H54.4213Z" fill="white"/>
<path d="M86.323 40.1905C86.3407 40.012 86.4582 39.8592 86.626 39.7961C86.7938 39.7329 86.9829 39.7706 87.1138 39.8932L90.1434 42.7309C90.4283 42.9978 90.8263 43.1074 91.2076 43.024L95.263 42.1375C95.4382 42.0992 95.6199 42.1637 95.7318 42.3038C95.8437 42.4439 95.8663 42.6354 95.7902 42.7977L94.0275 46.5561C93.8618 46.9095 93.8805 47.3218 94.0776 47.6587L96.1735 51.2411C96.2641 51.3959 96.2589 51.5886 96.1602 51.7383C96.0615 51.888 95.8864 51.9686 95.7084 51.9464L91.5894 51.4314C91.2021 51.383 90.8158 51.5282 90.5562 51.8199L87.7967 54.9204C87.6775 55.0544 87.4925 55.109 87.3197 55.0614C87.1468 55.0138 87.016 54.8721 86.9822 54.6961L86.1997 50.6203C86.126 50.2368 85.8685 49.9142 85.5109 49.7574L81.7088 48.0911C81.5446 48.0191 81.4355 47.8601 81.4274 47.681C81.4192 47.5019 81.5135 47.3337 81.6705 47.2471L85.3056 45.2427C85.6474 45.0542 85.8746 44.7096 85.9132 44.3211L86.323 40.1905Z" fill="white"/>
<path d="M87.7888 44.7329C87.1517 44.7329 86.6333 45.2512 86.6333 45.8884C86.6333 46.5255 87.1516 47.0438 87.7888 47.0438C88.4259 47.0438 88.9443 46.5255 88.9443 45.8884C88.9443 45.2513 88.4259 44.7329 87.7888 44.7329ZM87.7888 46.2735C87.5764 46.2735 87.4037 46.1008 87.4037 45.8884C87.4037 45.676 87.5764 45.5032 87.7888 45.5032C88.0012 45.5032 88.174 45.676 88.174 45.8884C88.174 46.1007 88.0012 46.2735 87.7888 46.2735Z" fill="black"/>
<path d="M90.8701 47.8145C90.233 47.8145 89.7146 48.3328 89.7146 48.9699C89.7146 49.607 90.2329 50.1254 90.8701 50.1254C91.5072 50.1254 92.0256 49.607 92.0256 48.9699C92.0256 48.3328 91.5072 47.8145 90.8701 47.8145ZM90.8701 49.355C90.6577 49.355 90.4849 49.1823 90.4849 48.9699C90.4849 48.7575 90.6577 48.5848 90.8701 48.5848C91.0825 48.5848 91.2552 48.7575 91.2552 48.9699C91.2552 49.1823 91.0825 49.355 90.8701 49.355Z" fill="black"/>
<path d="M91.2357 45.5232C91.0853 45.3728 90.8414 45.3728 90.691 45.5232L87.4229 48.7913C87.2725 48.9417 87.2725 49.1856 87.4229 49.336C87.4981 49.4112 87.5967 49.4489 87.6952 49.4489C87.7938 49.4489 87.8924 49.4112 87.9675 49.336L91.2357 46.0679C91.3861 45.9175 91.3861 45.6736 91.2357 45.5232Z" fill="black"/>
<path d="M5.43038 17.4431C5.44438 17.3021 5.53721 17.1812 5.66987 17.1314C5.80252 17.0815 5.95198 17.1112 6.05541 17.2081L8.44996 19.451C8.67513 19.6619 8.98967 19.7486 9.29107 19.6826L12.4964 18.982C12.6349 18.9517 12.7785 19.0027 12.8669 19.1134C12.9553 19.2242 12.9732 19.3755 12.913 19.5038L11.5199 22.4743C11.3889 22.7537 11.4037 23.0795 11.5594 23.3458L13.216 26.1773C13.2876 26.2996 13.2835 26.452 13.2055 26.5702C13.1275 26.6886 12.9891 26.7523 12.8484 26.7347L9.59286 26.3277C9.28674 26.2894 8.98137 26.4042 8.77624 26.6347L6.59514 29.0853C6.50092 29.1912 6.35476 29.2343 6.21815 29.1967C6.08151 29.1591 5.97811 29.0471 5.95139 28.908L5.33289 25.6866C5.27472 25.3835 5.07115 25.1285 4.78851 25.0046L1.78345 23.6875C1.65367 23.6306 1.56739 23.505 1.56097 23.3634C1.55455 23.2219 1.62905 23.0889 1.75314 23.0205L4.62624 21.4362C4.89642 21.2873 5.07602 21.0149 5.10649 20.7078L5.43038 17.4431Z" fill="white"/>
<path d="M6.58892 21.0334C6.08536 21.0334 5.67566 21.4431 5.67566 21.9467C5.67566 22.4503 6.08534 22.8599 6.58892 22.8599C7.09249 22.8599 7.50219 22.4503 7.50219 21.9467C7.50219 21.4431 7.09251 21.0334 6.58892 21.0334ZM6.58896 22.2511C6.4211 22.2511 6.28454 22.1146 6.28454 21.9467C6.28454 21.7789 6.4211 21.6423 6.58896 21.6423C6.75682 21.6423 6.89338 21.7789 6.89338 21.9467C6.89338 22.1146 6.7568 22.2511 6.58896 22.2511Z" fill="black"/>
<path d="M9.02435 23.469C8.52078 23.469 8.11108 23.8787 8.11108 24.3822C8.11108 24.8858 8.52076 25.2955 9.02435 25.2955C9.52792 25.2955 9.93761 24.8858 9.93761 24.3822C9.93761 23.8787 9.52792 23.469 9.02435 23.469ZM9.02435 24.6866C8.85649 24.6866 8.71993 24.5501 8.71993 24.3822C8.71993 24.2144 8.85649 24.0778 9.02435 24.0778C9.19221 24.0778 9.32876 24.2144 9.32876 24.3822C9.32876 24.5501 9.19221 24.6866 9.02435 24.6866Z" fill="black"/>
<path d="M9.31332 21.658C9.19446 21.5391 9.00169 21.5391 8.88281 21.658L6.29973 24.2411C6.18085 24.3599 6.18085 24.5527 6.29973 24.6716C6.35918 24.731 6.43709 24.7608 6.51498 24.7608C6.59288 24.7608 6.6708 24.731 6.73024 24.6716L9.31333 22.0885C9.43221 21.9696 9.43221 21.7769 9.31332 21.658Z" fill="black"/>
<path d="M105.968 18.4218C106.18 18.3078 106.438 18.3239 106.634 18.4634C106.83 18.6029 106.93 18.8416 106.892 19.0791L106.005 24.578C105.921 25.0951 106.097 25.6202 106.476 25.9821L110.502 29.8311C110.676 29.9974 110.741 30.248 110.669 30.4775C110.597 30.707 110.4 30.8758 110.163 30.9127L104.659 31.768C104.141 31.8484 103.696 32.1783 103.469 32.6502L101.053 37.6681C100.949 37.8849 100.73 38.0236 100.49 38.0258C100.249 38.0283 100.028 37.8938 99.9194 37.6791L97.4051 32.7088C97.1687 32.2415 96.7175 31.9203 96.1984 31.8501L90.6791 31.1028C90.4407 31.0706 90.2413 30.9057 90.1647 30.6776C90.0881 30.4495 90.1477 30.1978 90.3183 30.0282L94.268 26.1022C94.6395 25.7329 94.8056 25.2044 94.712 24.6889L93.7168 19.2084C93.6738 18.9716 93.7689 18.731 93.9622 18.5877C94.1554 18.4444 94.4133 18.4232 94.6274 18.5331L99.5829 21.0764C100.049 21.3155 100.603 21.3101 101.064 21.0618L105.968 18.4218Z" fill="white"/>
<path d="M102.012 23.4579C101.534 22.7488 100.569 22.5604 99.8595 23.038C99.1504 23.5155 98.9621 24.4809 99.4396 25.19C99.9172 25.8991 100.883 26.0875 101.592 25.61C102.301 25.1324 102.489 24.167 102.012 23.4579ZM100.297 24.6127C100.138 24.3763 100.201 24.0546 100.437 23.8954C100.673 23.7362 100.995 23.799 101.154 24.0353C101.313 24.2717 101.251 24.5935 101.014 24.7527C100.778 24.9119 100.456 24.849 100.297 24.6127Z" fill="black"/>
<path d="M100.892 29.1969C100.414 28.4878 99.4486 28.2994 98.7396 28.7769C98.0305 29.2545 97.8421 30.2199 98.3197 30.929C98.7972 31.6381 99.7626 31.8265 100.472 31.3489C101.181 30.8714 101.369 29.906 100.892 29.1969ZM99.177 30.3516C99.0178 30.1153 99.0806 29.7935 99.317 29.6343C99.5533 29.4751 99.8751 29.5379 100.034 29.7743C100.193 30.0106 100.131 30.3324 99.8943 30.4916C99.658 30.6508 99.3362 30.588 99.177 30.3516Z" fill="black"/>
<path d="M103.716 27.8865C103.77 27.6064 103.588 27.335 103.307 27.2803L97.2205 26.0926C96.9404 26.0379 96.669 26.2207 96.6143 26.5009C96.587 26.641 96.619 26.7789 96.6928 26.8886C96.7667 26.9982 96.8825 27.0798 97.0226 27.1071L103.11 28.2948C103.39 28.3494 103.661 28.1666 103.716 27.8865Z" fill="black"/>
</svg>
