<svg width="127" height="81" viewBox="0 0 127 81" fill="none" xmlns="http://www.w3.org/2000/svg">
<path d="M104.449 5.44516C104.481 5.13088 104.688 4.86157 104.983 4.75043C105.279 4.63924 105.612 4.70557 105.842 4.92147L111.179 9.92019C111.681 10.3902 112.382 10.5833 113.054 10.4364L120.197 8.87485C120.506 8.80742 120.826 8.92096 121.023 9.16779C121.22 9.41462 121.26 9.75191 121.126 10.0379L118.021 16.6581C117.729 17.2807 117.762 18.007 118.109 18.6004L121.801 24.9108C121.961 25.1835 121.951 25.523 121.778 25.7865C121.604 26.0503 121.295 26.1923 120.982 26.1531L113.726 25.246C113.044 25.1607 112.363 25.4165 111.906 25.9303L107.045 31.3919C106.835 31.6278 106.51 31.724 106.205 31.6402C105.901 31.5563 105.67 31.3068 105.611 30.9967L104.232 23.8172C104.103 23.1418 103.649 22.5735 103.019 22.2973L96.3217 19.362C96.0324 19.2352 95.8401 18.9552 95.8258 18.6397C95.8115 18.3242 95.9775 18.0279 96.2541 17.8753L102.657 14.3446C103.259 14.0126 103.66 13.4055 103.728 12.7212L104.449 5.44516Z" fill="white"/>
<path d="M83.5305 5.87818C83.638 5.74429 83.8122 5.68306 83.9799 5.72024C84.1476 5.7574 84.2796 5.88653 84.3205 6.05333L85.2668 9.91512C85.3557 10.2782 85.6177 10.5744 85.9673 10.707L89.6849 12.1172C89.8455 12.1782 89.9576 12.3249 89.9741 12.4959C89.9905 12.6668 89.9085 12.8323 89.7625 12.9227L86.3821 15.0161C86.0642 15.213 85.8636 15.5536 85.8454 15.927L85.653 19.8978C85.6447 20.0693 85.5397 20.2213 85.3822 20.2897C85.2247 20.3582 85.042 20.3313 84.9109 20.2203L81.8755 17.6524C81.59 17.4109 81.2041 17.3253 80.8432 17.4235L77.0071 18.4677C76.8414 18.5128 76.6645 18.4598 76.5507 18.3312C76.4369 18.2026 76.406 18.0205 76.471 17.8616L77.9753 14.182C78.1168 13.8358 78.079 13.4422 77.8741 13.1294L75.6952 9.80338C75.6011 9.65971 75.5967 9.47506 75.6839 9.32711C75.7711 9.17915 75.9347 9.09351 76.106 9.10614L80.0712 9.39956C80.444 9.42715 80.8066 9.26951 81.0408 8.97799L83.5305 5.87818Z" fill="white"/>
<path d="M83.7057 33.4698C83.6828 33.2996 83.7584 33.1311 83.9009 33.0352C84.0434 32.9393 84.228 32.9326 84.377 33.018L87.8276 34.9933C88.1521 35.179 88.5472 35.1933 88.8842 35.0313L92.4679 33.309C92.6228 33.2346 92.8063 33.2545 92.9416 33.3604C93.0768 33.4663 93.1402 33.6397 93.1051 33.8079L92.2928 37.7C92.2164 38.0661 92.325 38.4462 92.5831 38.7166L95.328 41.5923C95.4466 41.7165 95.4844 41.8973 95.4254 42.0586C95.3666 42.2199 95.2212 42.3338 95.0504 42.3523L91.0978 42.7825C90.7261 42.823 90.3981 43.0437 90.2207 43.3729L88.3339 46.8723C88.2524 47.0235 88.0921 47.1153 87.9205 47.1091C87.7489 47.1029 87.5956 46.9998 87.5252 46.8432L85.8953 43.2175C85.742 42.8764 85.4307 42.6326 85.0627 42.5655L81.1511 41.8526C80.9821 41.8218 80.8453 41.6977 80.7981 41.5326C80.751 41.3675 80.8016 41.1899 80.9288 41.0745L83.8738 38.4032C84.1507 38.152 84.2864 37.7806 84.2365 37.41L83.7057 33.4698Z" fill="white"/>
<path d="M55.5158 29.0167L51.1899 17.9785L41.7572 21.6745L46.0831 32.7127L55.5158 29.0167ZM17.19 42.6332L13.9384 34.3282L40.9867 23.7342L44.2404 32.0351L17.19 42.6332ZM11.8643 43.7695L9.24889 37.1048L13.4384 35.4624L16.0518 42.1271L11.8643 43.7695ZM8.77374 38.2948L10.7921 43.441L7.14791 44.8686L5.12957 39.7224L8.77374 38.2948ZM2.64434 39.8835L3.21865 41.3503L4.79283 40.7347L6.25339 44.4678L4.67921 45.0814L5.25352 46.5461L2.61336 47.5873L4.40603e-05 40.9206L2.64434 39.8835ZM51.9068 15.5304L54.7432 14.4189L60.259 28.4941L57.4205 29.6055L51.9068 15.5304ZM32.6509 50.6531L11.4759 79.9644L14.1718 80.421L34.3676 52.5331V79.9644H36.8715V52.3121L56.8958 79.9644H59.4389L38.7225 50.6531H40.9515V39.8835H30.2917V50.6531H32.6509ZM33.6012 45.2673C33.6012 44.2426 34.4296 43.4162 35.4502 43.4162C36.4728 43.4162 37.3012 44.2405 37.3012 45.2673C37.3012 46.2961 36.4728 47.1163 35.4502 47.1163C34.4296 47.1163 33.6012 46.292 33.6012 45.2673Z" fill="white"/>
</svg>
