<svg width="110" height="64" viewBox="0 0 110 64" fill="none" xmlns="http://www.w3.org/2000/svg">
<path fill-rule="evenodd" clip-rule="evenodd" d="M87.1778 57.9981L89.0074 54.5615L85.2447 54.7182C85.1177 57.0772 85.621 57.3478 87.1731 57.9981H87.1778ZM75.9318 50.6124C78.7445 50.4178 77.3758 49.6963 78.6175 47.0239C79.1913 45.7851 80.4895 44.1427 81.0774 43.5209C78.1001 43.9196 76.5668 47.1901 75.9318 50.6124V50.6124ZM106.829 43.839C106.645 42.0732 106.476 42.0637 104.91 41.328C102.243 40.0749 97.9017 39.4246 94.9809 39.287L97.9911 41.0385C100.667 42.4292 103.226 45.9512 106.829 43.8342V43.839ZM74.0692 47.9163C75.0805 45.804 75.5085 42.1824 74.3561 39.6524C74.2574 39.4388 73.9611 38.9167 73.8058 38.7126C73.4202 38.2 73.3778 38.3044 72.9498 37.9389C74.4079 42.6665 74.1351 42.7567 74.0692 47.9163V47.9163ZM4.76835 37.1652C3.37612 39.6572 3.7477 40.578 7.45873 39.9088C9.78224 39.4911 11.6213 38.8977 12.5197 37.0086L4.76835 37.1652ZM66.2333 35.5704C66.238 33.6005 66.158 33.572 64.4648 33.1781C65.2691 34.0609 65.3114 34.7445 66.2333 35.5704ZM70.3676 35.7887C62.7715 29.4235 60.4856 26.8556 51.2998 25.9205C45.8014 25.3604 38.5016 25.6215 33.1538 26.4047C28.5726 27.0787 18.1309 31.4693 16.1884 34.1037L17.637 34.9201C17.6935 34.8346 17.7546 34.7017 17.7781 34.6495L18.2297 33.7619C19.3679 31.9392 22.6509 30.819 24.6828 30.0453C39.4846 24.4016 50.74 26.4142 55.0766 26.8366C60.0952 27.2306 69.8879 35.7982 70.3676 35.784V35.7887ZM13.6767 27.0407C14.5139 27.9948 13.5968 28.2558 16.8421 27.5344C17.844 27.3113 18.9493 27.1973 19.9276 26.8461L13.672 27.0407H13.6767ZM53.4304 25.2702C49.4278 23.6042 29.4757 22.9301 25.1061 24.8525C26.4184 26.2243 29.8096 25.3129 31.8509 25.1753C41.5589 24.5155 44.903 25.237 53.4304 25.2702V25.2702ZM11.8941 52.1075C11.0004 53.5458 11.2685 53.7119 11.4661 55.6675L9.62233 55.4397C7.4164 55.1074 8.51701 54.7562 6.53686 54.4524C3.10332 53.9302 3.42316 55.9191 0.939725 52.4208C-0.231439 50.7737 -0.160882 51.5997 0.356499 49.084C1.05732 48.614 0.897396 49.1172 1.23605 48.3245C1.45711 49.4969 1.90864 50.1757 2.42602 50.9304L10.0739 51.3149C12.5244 42.1539 24.3301 38.7126 29.946 45.0304C32.0438 47.3894 32.1472 49.3545 33.7088 52.4113L78.3306 52.8765C80.3719 52.2547 79.4077 42.6096 90.362 41.7932C97.7324 41.2473 101.448 46.2692 102.389 52.8528L105.38 52.5822C100.879 49.9953 104.679 51.4003 100.7 45.0968C97.0128 39.2585 84.0124 38.6082 79.5206 46.9765C78.7727 48.3672 78.4341 50.1899 77.6251 51.3386L34.6871 51.4288C32.4106 47.1758 30.9102 42.32 23.4458 40.9767L23.4881 36.5624C24.0667 36.2634 23.9162 37.5734 23.9914 35.5656L47.0149 36.4532L47.3065 49.4969C47.457 44.0431 48.0261 42.5621 47.2171 36.3915L61.1629 36.2112C61.7462 33.7714 60.8431 34.6495 62.5599 31.9772C60.3163 30.9756 51.7889 26.4996 48.6235 28.2701C48.012 29.0106 48.0026 27.3113 48.1061 30.0596L49.4654 35.5751C47.5088 35.5419 45.8531 35.7412 44.3621 35.1479L43.6143 27.8619C37.6644 27.7669 35.5196 28.0327 30.9055 30.145L31.2206 35.1527L23.9256 35.053L21.2258 35.3046L23.4505 35.9548C22.6792 35.9548 22.8061 35.727 22.8579 36.42L22.7356 40.6255C15.5816 41.627 11.5602 44.4228 9.51415 50.1377C8.13133 49.1694 7.61865 48.6045 7.17653 46.4876L2.53891 46.7107L1.15609 45.9322C1.10905 45.7898 0.972651 45.7898 0.883286 45.7234L2.13911 44.8595C2.4025 40.7157 2.99044 38.8313 2.89167 34.8014C6.76732 34.659 6.31109 34.9296 8.76159 32.9502C10.1068 31.8633 12.2422 30.9614 13.2675 29.732C13.0182 27.5818 12.6608 28.1419 12.2233 26.4284C29.3063 25.0329 14.0577 22.9491 39.3059 23.0203C44.1505 23.0346 48.9386 23.2292 53.6609 24.0076C64.1496 25.7401 68.5474 33.9423 73.2696 35.2713C75.2498 35.8267 84.6661 35.8694 87.8081 36.2064C93.2171 36.7807 101.664 38.0908 106.18 41.0242C108.64 42.6238 107.953 43.6966 108.132 46.9148C109.778 47.9827 109.477 47.1711 109.999 48.8039C108.889 50.5459 109.181 49.5254 108.212 50.6741C107.186 51.8939 107.563 52.2927 106.664 53.4983C105.893 54.5378 102.911 56.2893 101.448 57.044C101.227 38.518 81.3079 38.3519 79.7369 56.4649C74.7089 56.6453 41.3378 56.2134 38.6051 56.7687C36.3615 57.2244 35.7172 57.6231 33.1491 57.3763C32.4106 51.2152 30.4069 44.9402 25.1438 43.5684C18.4884 41.8311 12.0964 46.3214 11.8941 52.1075V52.1075ZM86.9144 60.0012C89.0216 61.4251 94.6046 61.3919 96.1473 57.4997C94.487 58.2354 95.1361 58.3588 94.0213 59.1847C92.9113 60.0059 92.1258 59.9679 90.5878 60.0961C90.7054 60.0012 90.9029 59.7258 90.9594 59.8255L92.2058 58.449L90.3715 55.7814L88.7252 58.449L90.1128 60.0581C89.3367 60.3287 84.0124 58.0408 86.9097 60.0012H86.9144ZM96.1473 57.4997C96.6694 57.12 96.3072 57.699 96.9516 56.8067L97.723 53.5837C97.7042 49.5159 94.2095 45.9322 89.9011 46.236C87.286 46.4211 84.7367 48.4621 83.8242 50.3845C82.9964 52.136 82.9917 55.1264 83.8289 56.7687C85.9737 60.9837 82.8976 53.1518 84.7132 50.2516C87.7516 45.4101 93.9649 46.1933 96.2555 50.5554C97.6618 53.2325 96.5142 55.0647 96.1473 57.4997V57.4997ZM92.0929 44.7313C105.098 47.4179 99.9336 65.773 88.142 62.6545C76.9854 59.7021 80.8799 42.4197 92.0929 44.7313ZM24.2219 46.6395C15.1677 43.6254 11.118 57.12 19.5796 60.4141C28.3327 63.8269 34.3061 49.9906 24.2219 46.6395ZM23.7468 44.6886C35.7219 46.9195 32.9139 64.7952 20.5767 62.8016C16.0379 62.0707 12.2139 57.3763 13.3428 51.7088C14.1894 47.4464 18.479 43.706 23.7468 44.6886V44.6886ZM23.7845 59.2559C23.7045 57.756 23.0272 56.7592 22.0301 55.6912C21.3293 56.707 20.6331 57.7655 20.5532 59.4743L23.7845 59.2559V59.2559ZM18.7659 58.0076L20.7178 54.5378L16.9409 54.8321C16.861 56.7545 17.4865 57.1864 18.7659 58.0076ZM25.8211 57.9269C26.8182 57.063 27.345 56.7023 27.4249 54.7989L23.6057 54.7562C23.7798 55.1264 24.236 56.0947 24.4288 56.4175L25.8164 57.9269H25.8211ZM21.9501 54.4381C24.0102 53.6597 23.3753 53.261 21.8419 52.6724C21.127 54.2388 21.3669 53.4841 21.9501 54.4381ZM18.1121 49.9906C16.4565 51.106 16.7293 51.2342 16.5599 53.3464L20.4685 52.8717L18.1168 49.9906H18.1121ZM27.6225 52.905C27.9564 50.8355 27.4532 50.75 26.3008 49.6678L24.8851 51.2057C24.6546 51.5902 24.2642 52.4588 24.0808 52.9524L27.6225 52.9002V52.905ZM20.1252 48.3625L21.8278 51.7515C22.8438 50.9304 24.029 49.2026 23.6198 48.3957C23.0131 47.1853 21.0847 47.9353 20.1205 48.3625H20.1252ZM24.8522 47.6267C32.7493 51.443 27.4767 62.626 19.7771 59.7021C11.8612 56.6975 16.3906 43.5447 24.8522 47.6267ZM93.5557 58.0218C95.1502 57.2244 95.6911 56.8589 95.5735 54.7372L91.8436 54.7087L93.551 58.0218H93.5557ZM91.0017 52.6771C89.4355 53.2942 88.8758 53.579 90.8888 54.4334C91.4909 53.5553 91.7496 54.2578 91.0017 52.6771V52.6771ZM85.0848 51.6946L84.525 53.0996C85.7668 53.7309 85.2118 53.8258 86.4299 53.0711L88.5888 52.9857C88.316 51.9651 88.6641 51.8512 86.1854 49.8766C85.4469 50.7405 85.6115 50.3608 85.0895 51.6898L85.0848 51.6946ZM95.9357 52.8765C96.2461 50.769 95.8604 50.4178 94.0684 49.5729L92.3845 52.9999L95.9404 52.8765H95.9357ZM90.5737 51.6376L92.0976 48.4004C91.9424 48.1584 91.0535 47.8451 90.3762 47.8119C89.4872 47.7691 89.2379 47.959 88.3301 48.2391L90.5737 51.6376V51.6376Z" fill="white"/>
<g clip-path="url(#clip0)">
<path d="M81.7574 13.3718L78.8584 14.8936L80.3801 17.7925L83.2791 16.2708C84.0763 15.8523 84.3862 14.8577 83.9677 14.0604C83.5492 13.2632 82.5546 12.9534 81.7574 13.3718Z" fill="white"/>
<path d="M75.373 6.49264C68.575 10.0611 65.9284 18.5562 69.4969 25.3542C73.0653 32.1523 81.5604 34.7988 88.3585 31.2304C95.1565 27.662 97.8031 19.1668 94.2346 12.3688C90.6662 5.5708 82.1711 2.92421 75.373 6.49264ZM93.6211 22.5238C92.6375 25.681 90.4982 28.2583 87.5976 29.7809C84.6969 31.3036 81.3607 31.6005 78.2034 30.6169C75.0462 29.6333 72.469 27.494 70.9463 24.5934C69.4237 21.6927 69.1267 18.3565 70.1103 15.1992C71.094 12.042 73.2332 9.46474 76.1339 7.94212C79.0346 6.4195 82.3708 6.12252 85.528 7.10613C88.6853 8.08974 91.2625 10.229 92.7852 13.1297C94.3078 16.0303 94.6048 19.3666 93.6211 22.5238V22.5238Z" fill="white"/>
<path d="M85.0411 8.66917C82.3014 7.81566 79.4083 8.07214 76.8947 9.39157C74.3812 10.711 72.5269 12.9465 71.6734 15.6862C70.8199 18.4258 71.0764 21.3189 72.3958 23.8325C73.7152 26.346 75.9508 28.2003 78.6904 29.0538C81.43 29.9073 84.3231 29.6509 86.8367 28.3314C89.3503 27.012 91.2045 24.7765 92.058 22.0368C92.9117 19.2971 92.6551 16.4041 91.3356 13.8905C90.0162 11.377 87.7809 9.52257 85.0411 8.66917ZM84.0399 17.7202L81.141 19.2419L81.9018 20.6914L85.5255 18.7892L86.2864 20.2387L82.6627 22.1409L84.1844 25.0398L82.735 25.8007L81.2132 22.9018L79.7637 23.6626L79.0029 22.2131L80.4524 21.4523L79.6915 20.0028L78.242 20.7637L77.4812 19.3142L78.9306 18.5533L76.648 14.2049L80.9965 11.9223C82.5909 11.0853 84.5802 11.7051 85.4172 13.2995C86.2541 14.8939 85.6344 16.8832 84.0399 17.7202Z" fill="white"/>
</g>
<defs>
<clipPath id="clip0">
<rect width="27.9388" height="27.9388" fill="white" transform="translate(63.0042 12.9854) rotate(-27.696)"/>
</clipPath>
</defs>
</svg>
