<svg width="35" height="35" viewBox="0 0 35 35" fill="none" xmlns="http://www.w3.org/2000/svg">
<g clip-path="url(#clip0)">
<path d="M29.0427 18.9992C28.4769 18.2847 28.6388 17.9667 29.0427 17.328C29.05 17.3207 33.721 10.8661 34.2023 8.67716L34.2052 8.67571C34.4444 7.878 34.2052 7.29175 33.0488 7.29175H29.2221C28.2479 7.29175 27.7987 7.79487 27.5581 8.35779C27.5581 8.35779 25.6098 13.0215 22.8535 16.0447C21.964 16.9182 21.5527 17.1982 21.0671 17.1982C20.8279 17.1982 20.456 16.9182 20.456 16.1205V8.67571C20.456 7.71904 20.1833 7.29175 19.3769 7.29175H13.3598C12.7488 7.29175 12.3856 7.738 12.3856 8.15362C12.3856 9.06071 13.7638 9.26925 13.9067 11.8213V17.3586C13.9067 18.572 13.6865 18.7951 13.1979 18.7951C11.8971 18.7951 8.73979 14.1124 6.86875 8.753C6.49104 7.71321 6.12208 7.29321 5.14063 7.29321H1.3125C0.220208 7.29321 0 7.79633 0 8.35925C0 9.35383 1.30083 14.299 6.04917 20.8324C9.21375 25.292 13.6704 27.7084 17.7246 27.7084C20.1615 27.7084 20.459 27.1717 20.459 26.2486C20.459 21.9874 20.2388 21.5849 21.4594 21.5849C22.0252 21.5849 22.9994 21.8649 25.2744 24.0159C27.8746 26.5665 28.3019 27.7084 29.7573 27.7084H33.584C34.6748 27.7084 35.2275 27.1717 34.9096 26.113C34.1819 23.8861 29.2644 19.3055 29.0427 18.9992V18.9992Z" fill="white"/>
</g>
<defs>
<clipPath id="clip0">
<rect width="35" height="35" fill="white"/>
</clipPath>
</defs>
</svg>
