<svg width="30" height="30" viewBox="0 0 30 30" fill="none" xmlns="http://www.w3.org/2000/svg">
<path d="M16.4159 11.3281H13.0175V7.92968C13.0175 7.61703 12.7638 7.36328 12.4511 7.36328C12.1385 7.36328 11.8847 7.61703 11.8847 7.92968V11.3281H8.48632C8.17367 11.3281 7.91992 11.5818 7.91992 11.8945C7.91992 12.2071 8.17367 12.4609 8.48632 12.4609H11.8847V15.8593C11.8847 16.172 12.1385 16.4257 12.4511 16.4257C12.7638 16.4257 13.0175 16.172 13.0175 15.8593V12.4609H16.4159C16.7286 12.4609 16.9823 12.2071 16.9823 11.8945C16.9823 11.5818 16.7286 11.3281 16.4159 11.3281Z" fill="#E5E5E5"/>
<path d="M29.2852 29.0411L20.869 20.2885C23.0157 18.1356 24.3456 15.1677 24.3456 11.8944C24.3456 5.3355 19.0101 0 12.4512 0C5.89226 0 0.556763 5.3355 0.556763 11.8944C0.556763 18.4533 5.89226 23.7888 12.4512 23.7888C15.3302 23.7888 17.9725 22.7597 20.0319 21.052L28.4684 29.8261C28.5795 29.9422 28.7279 30 28.8768 30C29.0184 30 29.1594 29.9473 29.2693 29.842C29.4948 29.625 29.5016 29.2665 29.2852 29.0411ZM1.68956 11.8944C1.68956 5.96024 6.517 1.1328 12.4512 1.1328C18.3854 1.1328 23.2128 5.96024 23.2128 11.8944C23.2128 17.8286 18.3854 22.656 12.4512 22.656C6.517 22.656 1.68956 17.8286 1.68956 11.8944Z" fill="#E5E5E5"/>
</svg>
